<svg viewBox="0 0 16 16" fill="currentColor" xmlns="http://www.w3.org/2000/svg" id="Reactjs-Fill--Streamline-Remix-Fill" height="16" width="16">
  <path d="M9.632 10.826266666666665c-0.37806666666666666 0.5345333333333333 -0.7698 1.0213333333333332 -1.1643333333333332 1.450133333333333 1.1148666666666665 1.0819333333333332 2.151733333333333 1.5885999999999998 2.7269999999999994 1.2564666666666666 0.5752666666666666 -0.3321333333333333 0.6549333333333334 -1.4833999999999998 0.2754 -2.9898666666666665 -0.5686666666666667 0.12726666666666664 -1.1860666666666666 0.22313333333333332 -1.8380666666666665 0.28326666666666667Zm-0.8733333333333333 0.05806666666666666c-0.24926666666666666 0.010333333333333333 -0.5023333333333333 0.0156 -0.7584666666666666 0.0156s-0.5092 -0.005266666666666667 -0.7584 -0.0156c0.2511333333333333 0.3282 0.5054 0.6322666666666666 0.7584 0.9093333333333333 0.253 -0.2770666666666667 0.5072666666666666 -0.5811333333333333 0.7584666666666666 -0.9093333333333333Zm3.3604666666666665 -5.26248c1.7764666666666664 0.5095999999999999 2.9366666666666665 1.35628 2.9366666666666665 2.3780799999999997 0 1.0217333333333332 -1.1602 1.8684666666666667 -2.9366666666666665 2.3780666666666663 0.4469333333333333 1.7932666666666668 0.2937333333333333 3.221333333333333 -0.5911333333333333 3.7321999999999997 -0.8848666666666666 0.5108666666666666 -2.1982 -0.07053333333333334 -3.5277999999999996 -1.3541999999999998 -1.3295333333333332 1.2836666666666665 -2.6428933333333333 1.8650666666666667 -3.52776 1.3541999999999998 -0.8848666666666666 -0.5108666666666666 -1.0380533333333333 -1.9389333333333332 -0.59114 -3.7321999999999997 -1.7764733333333331 -0.5095999999999999 -2.9366399999999997 -1.3563333333333332 -2.9366399999999997 -2.3780666666666663 0 -1.0217999999999998 1.1601666666666666 -1.86848 2.9366399999999997 -2.3780799999999997 -0.44691333333333333 -1.7932666666666668 -0.29372666666666664 -3.221353333333333 0.59114 -3.7322333333333333 0.8848666666666666 -0.51088 2.1982266666666668 0.07050666666666666 3.52776 1.3541733333333332 1.3296 -1.2836666666666665 2.642933333333333 -1.8650533333333332 3.5277999999999996 -1.3541733333333332 0.8848666666666666 0.51088 1.0380666666666665 1.9389666666666667 0.5911333333333333 3.7322333333333333Zm-0.6490666666666667 -0.16500666666666666c0.37953333333333333 -1.50646 0.2998666666666666 -2.6577466666666663 -0.2754 -2.9898733333333336 -0.5752666666666666 -0.3321333333333333 -1.6121333333333334 0.1745 -2.7269999999999994 1.2564199999999999 0.3945333333333333 0.4288066666666666 0.7862666666666667 0.9156 1.1643333333333332 1.4501466666666665 0.6519999999999999 0.060153333333333336 1.2693999999999999 0.15600666666666665 1.8380666666666665 0.28330666666666665ZM4.53036 10.543c-0.37953333333333333 1.5064666666666666 -0.29984666666666665 2.6577333333333333 0.2754133333333333 2.9898666666666665 0.57526 0.3321333333333333 1.6121466666666664 -0.17453333333333332 2.7270266666666663 -1.2564666666666666 -0.39459999999999995 -0.42879999999999996 -0.7863333333333333 -0.9156 -1.1643866666666667 -1.450133333333333 -0.6519666666666666 -0.06013333333333333 -1.2694133333333333 -0.156 -1.8380533333333333 -0.28326666666666667Zm2.71144 -5.427506666666667c0.2492 -0.01032 0.5022666666666666 -0.015579999999999998 0.7584 -0.015579999999999998s0.5092 0.005259999999999999 0.7584666666666666 0.015579999999999998c-0.2512 -0.3281866666666666 -0.5054666666666666 -0.6322933333333333 -0.7584666666666666 -0.9093466666666666 -0.253 0.2770533333333333 -0.5072666666666666 0.5811599999999999 -0.7584 0.9093466666666666Zm-0.8733866666666665 0.05804666666666666c0.37805333333333335 -0.5345466666666666 0.7697866666666666 -1.02134 1.1643866666666667 -1.4501466666666665 -1.1148799999999999 -1.08192 -2.1517666666666666 -1.588553333333333 -2.7270266666666663 -1.2564199999999999 -0.57526 0.3321266666666667 -0.6549466666666666 1.4834133333333333 -0.2754133333333333 2.9898733333333336 0.56864 -0.1273 1.1860866666666667 -0.22315333333333334 1.8380533333333333 -0.28330666666666665Zm2.8941866666666667 5.012926666666666c0.2304 -0.3379333333333333 0.45553333333333335 -0.6953999999999999 0.6717333333333333 -1.0698666666666665 0.21619999999999998 -0.3745333333333333 0.4132 -0.7482 0.5906666666666667 -1.1166666666666667 -0.17746666666666666 -0.36853333333333327 -0.3744666666666666 -0.7422 -0.5906666666666667 -1.1166666666666667 -0.21619999999999998 -0.3745266666666667 -0.44133333333333336 -0.7319733333333334 -0.6717333333333333 -1.0699 -0.40786666666666666 -0.030566666666666666 -0.8299333333333332 -0.04678666666666667 -1.2624 -0.04678666666666667 -0.43239999999999995 0 -0.8545333333333334 0.01622 -1.2624 0.04678666666666667 -0.23038666666666666 0.3379266666666666 -0.45548666666666665 0.6953733333333334 -0.6717066666666667 1.0699 -0.21622 0.3744666666666666 -0.41322666666666663 0.7481333333333333 -0.59068 1.1166666666666667 0.17745333333333335 0.3684666666666666 0.37446 0.7421333333333333 0.59068 1.1166666666666667 0.21622 0.3744666666666666 0.44132 0.7319333333333333 0.6717066666666667 1.0698666666666665 0.40786666666666666 0.030533333333333332 0.8300000000000001 0.046799999999999994 1.2624 0.046799999999999994 0.43246666666666667 0 0.8545333333333334 -0.016266666666666665 1.2624 -0.046799999999999994Zm0.8563999999999999 -0.08753333333333332c0.4098 -0.0534 0.8002666666666666 -0.12153333333333333 1.1667333333333332 -0.20213333333333333 -0.11346666666666666 -0.35766666666666663 -0.24966666666666665 -0.7298666666666667 -0.4083333333333333 -1.1114666666666666 -0.11566666666666665 0.221 -0.23766666666666664 0.4427333333333333 -0.3657333333333333 0.6646 -0.12806666666666666 0.2218 -0.2591333333333333 0.4383333333333333 -0.3926666666666666 0.649ZM5.881453333333333 5.900886666666667c-0.40980666666666665 0.053426666666666664 -0.8002933333333333 0.12156 -1.1667333333333332 0.20214 0.11343333333333333 0.35764 0.24967333333333333 0.7299066666666666 0.40830666666666665 1.1115066666666666 0.11568 -0.221 0.23764666666666667 -0.44279999999999997 0.36571333333333333 -0.66462 0.12807333333333332 -0.22183333333333333 0.25915999999999995 -0.43834 0.3927133333333333 -0.6490266666666666Zm-1.1667333333333332 3.995913333333333c0.36644 0.08059999999999999 0.7569266666666665 0.14873333333333333 1.1667333333333332 0.20213333333333333 -0.13355333333333333 -0.21066666666666667 -0.26464 -0.4272 -0.3927133333333333 -0.649 -0.12806666666666666 -0.22186666666666666 -0.25003333333333333 -0.4436 -0.36571333333333333 -0.6646 -0.15863333333333332 0.3816 -0.2948733333333333 0.7538 -0.40830666666666665 1.1114666666666666ZM4.062926666666666 9.733333333333333c0.17408 -0.5560666666666666 0.3997866666666666 -1.1387333333333332 0.6736800000000001 -1.7333999999999998 -0.2738933333333333 -0.5947333333333333 -0.49959999999999993 -1.1773333333333333 -0.6736800000000001 -1.7334733333333334 -1.4944 0.42454 -2.4516 1.0692066666666666 -2.4516 1.7334733333333334 0 0.6641999999999999 0.9571999999999999 1.3088666666666666 2.4516 1.7333999999999998ZM11.285733333333333 6.103026666666667c-0.3664666666666666 -0.08058 -0.7569333333333332 -0.1487133333333333 -1.1667333333333332 -0.20214 0.13353333333333334 0.21068666666666663 0.26459999999999995 0.4271933333333333 0.3926666666666666 0.6490266666666666 0.12806666666666666 0.22182000000000002 0.25006666666666666 0.44361999999999996 0.3657333333333333 0.66462 0.15866666666666665 -0.3816 0.29486666666666667 -0.7538666666666667 0.4083333333333333 -1.1115066666666666Zm0.6517999999999999 0.16343333333333332c-0.1741333333333333 0.55614 -0.3998 1.1387399999999999 -0.6737333333333333 1.7334733333333334 0.2739333333333333 0.5946666666666667 0.49959999999999993 1.1773333333333333 0.6737333333333333 1.7333999999999998 1.4944 -0.4245333333333333 2.4516 -1.0692 2.4516 -1.7333999999999998 0 -0.6642666666666666 -0.9571999999999999 -1.3089333333333333 -2.4516 -1.7334733333333334Zm-3.937333333333333 2.9862066666666665c-0.6918666666666666 0 -1.2527333333333333 -0.5608666666666666 -1.2527333333333333 -1.2527333333333333 0 -0.6919333333333333 0.5608666666666666 -1.2528 1.2527333333333333 -1.2528 0.6919333333333333 0 1.2528 0.5608666666666666 1.2528 1.2528 0 0.6918666666666666 -0.5608666666666666 1.2527333333333333 -1.2528 1.2527333333333333Z" stroke-width="0.6667"></path>
</svg>