<?xml version="1.0" encoding="iso-8859-1"?>
<svg fill="currentColor" version="1.1" id="Layer_1" xmlns="http://www.w3.org/2000/svg" xmlns:xlink="http://www.w3.org/1999/xlink" 
	 viewBox="0 0 512 512" xml:space="preserve">
<g>
	<g>
		<rect x="184.649" y="322.351" width="21.603" height="21.604"/>
	</g>
</g>
<g>
	<g>
		<rect x="218.486" y="322.351" width="21.604" height="21.604"/>
	</g>
</g>
<g>
	<g>
		<rect x="252.333" y="322.351" width="21.603" height="21.604"/>
	</g>
</g>
<g>
	<g>
		<path d="M501.728,0H63.682v113.746H10.271V512h438.044V398.25h53.414V0H501.728z M96.544,32.862h306.261v27.912H96.544V32.862z
			 M43.133,146.608H349.39v27.912H43.133V146.608z M415.453,479.138H43.133V207.381h372.32V479.138z M382.251,174.52v-27.912h33.201
			v27.912H382.251z M468.866,365.389h-20.553V113.745H96.544v-20.11h372.323V365.389z M468.866,60.773h-33.201V32.862h33.201V60.773
			z"/>
	</g>
</g>
</svg>