<svg
  xmlns="http://www.w3.org/2000/svg"
  width="448"
  height="448"
  viewBox="0 0 448 448"
  fill="currentColor"
>
  <!-- Arrow -->
  <path
    d="M 368 224 240 96 160 96 256 192 96 192 96 256 256 256 160 352 240 352 z"
    fill="currentColor"
  />

  <!-- Circle outline -->
  <path
    d="M224 0A224 224 0 0 0 0 224A224 224 0 0 0 224 448A224 224 0 0 0 448 224A224 224 0 0 0 224 0zM224 32A192 192 0 0 1 416 224A192 192 0 0 1 224 416A192 192 0 0 1 32 224A192 192 0 0 1 224 32z"
    transform="translate(0,0)"
    fill="currentColor"
  />
</svg>
