<svg width="93" height="93" viewBox="0 0 93 93" fill="none" xmlns="http://www.w3.org/2000/svg">
<path d="M87.6693 36.575C87.1654 35.5942 86.8837 34.5145 86.8443 33.4125L86.5143 24.75C86.4876 24.141 86.3134 23.5476 86.0069 23.0207C85.7004 22.4939 85.2705 22.0492 84.7543 21.725L77.3568 17.05C76.4264 16.4684 75.6447 15.6774 75.0743 14.74L70.3993 7.3975C70.0598 6.87295 69.596 6.44035 69.0491 6.13812C68.5022 5.83589 67.8891 5.67337 67.2643 5.665L58.5743 5.28C57.4704 5.23116 56.3907 4.94012 55.4118 4.4275L47.7943 0.412504C47.2563 0.143393 46.6634 0.00222168 46.0618 3.5908e-06C45.4599 -0.000821379 44.8663 0.140515 44.3293 0.412504L36.6018 4.4275C35.6229 4.94012 34.5433 5.23116 33.4393 5.28L24.7493 5.665C24.1423 5.68645 23.5497 5.8554 23.0226 6.15726C22.4956 6.45912 22.05 6.8848 21.7243 7.3975L17.0493 14.74C16.4687 15.6786 15.6779 16.4694 14.7393 17.05L7.39684 21.725C6.88414 22.0506 6.45846 22.4963 6.1566 23.0233C5.85474 23.5504 5.68579 24.143 5.66434 24.75L5.27934 33.44C5.23376 34.5357 4.94241 35.6071 4.42684 36.575L0.411843 44.33C0.141056 44.8674 0 45.4608 0 46.0625C0 46.6643 0.141056 47.2576 0.411843 47.795L4.42684 55.5225C4.93946 56.5014 5.2305 57.5811 5.27934 58.685L5.66434 67.375C5.69037 67.981 5.86127 68.5719 6.16271 69.0982C6.46414 69.6245 6.88734 70.0709 7.39684 70.4L7.94684 70.73L9.87184 71.9675L11.7968 73.1775L14.7393 75.0475C15.6779 75.6281 16.4687 76.4189 17.0493 77.3575L21.7243 84.7C22.05 85.2127 22.4956 85.6384 23.0226 85.9403C23.5497 86.2421 24.1423 86.4111 24.7493 86.4325L33.4393 86.8175C34.5433 86.8664 35.6229 87.1574 36.6018 87.67L37.0693 87.9175L44.3018 91.685C44.8399 91.9541 45.4328 92.0953 46.0343 92.0975C46.6366 92.1015 47.231 91.96 47.7668 91.685L52.8818 88.935L55.6318 87.5875L56.2093 87.3125C57.0256 86.9849 57.889 86.79 58.7668 86.735H58.9593L67.2643 86.4325C67.8733 86.4058 68.4667 86.2316 68.9936 85.9251C69.5205 85.6185 69.9651 85.1887 70.2893 84.6725L74.9643 77.33C75.5526 76.3975 76.3418 75.6082 77.2743 75.02L78.9243 73.975L84.5893 70.3725C85.1326 70.0704 85.5926 69.6387 85.9285 69.1157C86.2644 68.5926 86.4656 67.9947 86.5143 67.375L86.8993 58.685C86.9387 57.5831 87.2204 56.5033 87.7243 55.5225L91.7393 47.795C92.0234 47.2617 92.172 46.6667 92.172 46.0625C92.172 45.4583 92.0234 44.8633 91.7393 44.33L87.6693 36.575Z" fill="currentColor"/>
</svg>
