<svg width="415" height="175" viewBox="0 0 415 175" fill="none" xmlns="http://www.w3.org/2000/svg">
  <line y1="89.5" x2="415" y2="89.5" stroke="currentColor" stroke-dasharray="4 4"/>
  <rect class="icon-fg" width="42" height="19" transform="translate(337 79)" fill="currentColor"/>
  <path d="M346.953 94H340.753C340.465 94 340.321 93.8587 340.321 93.576C340.321 92.968 340.404 92.4453 340.569 92.008C340.735 91.5707 340.975 91.184 341.289 90.848C341.609 90.5067 341.996 90.1867 342.449 89.888C342.908 89.5893 343.425 89.2747 344.001 88.944C344.529 88.64 344.975 88.3707 345.337 88.136C345.7 87.896 345.975 87.6453 346.161 87.384C346.353 87.1173 346.449 86.7893 346.449 86.4C346.449 85.7013 346.313 85.216 346.041 84.944C345.769 84.6667 345.281 84.528 344.577 84.528H342.865C342.247 84.528 341.796 84.6347 341.513 84.848C341.236 85.0613 341.073 85.4347 341.025 85.968C341.009 86.1067 340.967 86.2107 340.897 86.28C340.828 86.3493 340.727 86.384 340.593 86.384C340.455 86.384 340.348 86.3467 340.273 86.272C340.199 86.192 340.167 86.0827 340.177 85.944C340.241 85.1707 340.492 84.6027 340.929 84.24C341.367 83.872 342.012 83.688 342.865 83.688H344.577C345.511 83.688 346.196 83.9067 346.633 84.344C347.071 84.7813 347.289 85.4667 347.289 86.4C347.289 86.9493 347.159 87.4133 346.897 87.792C346.641 88.1653 346.295 88.4987 345.857 88.792C345.425 89.08 344.945 89.3733 344.417 89.672C343.74 90.0613 343.172 90.4133 342.713 90.728C342.255 91.0373 341.897 91.3787 341.641 91.752C341.391 92.12 341.239 92.5893 341.185 93.16H346.953C347.236 93.16 347.377 93.2987 347.377 93.576C347.377 93.8587 347.236 94 346.953 94ZM352.76 94.032C351.602 94.032 350.757 93.7653 350.224 93.232C349.69 92.6987 349.424 91.8533 349.424 90.696V87.048C349.424 85.8907 349.69 85.048 350.224 84.52C350.762 83.992 351.608 83.7307 352.76 83.736H353.72C354.877 83.736 355.72 84.0027 356.248 84.536C356.781 85.064 357.048 85.9067 357.048 87.064V90.696C357.048 91.8533 356.781 92.6987 356.248 93.232C355.72 93.7653 354.877 94.032 353.72 94.032H352.76ZM352.76 93.192H353.72C354.333 93.192 354.821 93.112 355.184 92.952C355.546 92.792 355.808 92.5307 355.968 92.168C356.128 91.8 356.208 91.3093 356.208 90.696V87.064C356.208 86.4507 356.128 85.9627 355.968 85.6C355.808 85.2373 355.546 84.976 355.184 84.816C354.821 84.656 354.333 84.576 353.72 84.576H352.76C352.146 84.5707 351.656 84.648 351.288 84.808C350.925 84.9627 350.664 85.2213 350.504 85.584C350.344 85.9467 350.264 86.4347 350.264 87.048V90.696C350.264 91.3093 350.344 91.8 350.504 92.168C350.664 92.5307 350.925 92.792 351.288 92.952C351.65 93.112 352.141 93.192 352.76 93.192ZM353.096 89.512C352.786 89.512 352.632 89.3547 352.632 89.04V88.736C352.632 88.432 352.786 88.28 353.096 88.28H353.392C353.696 88.28 353.848 88.432 353.848 88.736V89.04C353.848 89.3547 353.696 89.512 353.392 89.512H353.096ZM365.797 94H359.597C359.309 94 359.165 93.8587 359.165 93.576C359.165 92.968 359.248 92.4453 359.413 92.008C359.579 91.5707 359.819 91.184 360.133 90.848C360.453 90.5067 360.84 90.1867 361.293 89.888C361.752 89.5893 362.269 89.2747 362.845 88.944C363.373 88.64 363.819 88.3707 364.181 88.136C364.544 87.896 364.819 87.6453 365.005 87.384C365.197 87.1173 365.293 86.7893 365.293 86.4C365.293 85.7013 365.157 85.216 364.885 84.944C364.613 84.6667 364.125 84.528 363.421 84.528H361.709C361.091 84.528 360.64 84.6347 360.357 84.848C360.08 85.0613 359.917 85.4347 359.869 85.968C359.853 86.1067 359.811 86.2107 359.741 86.28C359.672 86.3493 359.571 86.384 359.437 86.384C359.299 86.384 359.192 86.3467 359.117 86.272C359.043 86.192 359.011 86.0827 359.021 85.944C359.085 85.1707 359.336 84.6027 359.773 84.24C360.211 83.872 360.856 83.688 361.709 83.688H363.421C364.355 83.688 365.04 83.9067 365.477 84.344C365.915 84.7813 366.133 85.4667 366.133 86.4C366.133 86.9493 366.003 87.4133 365.741 87.792C365.485 88.1653 365.139 88.4987 364.701 88.792C364.269 89.08 363.789 89.3733 363.261 89.672C362.584 90.0613 362.016 90.4133 361.557 90.728C361.099 91.0373 360.741 91.3787 360.485 91.752C360.235 92.12 360.083 92.5893 360.029 93.16H365.797C366.08 93.16 366.221 93.2987 366.221 93.576C366.221 93.8587 366.08 94 365.797 94ZM371.115 94C370.209 94 369.523 93.8053 369.059 93.416C368.595 93.0267 368.331 92.416 368.267 91.584C368.257 91.4453 368.289 91.3387 368.363 91.264C368.438 91.184 368.545 91.144 368.683 91.144C368.945 91.144 369.086 91.2827 369.107 91.56C369.161 92.152 369.337 92.568 369.635 92.808C369.939 93.0427 370.433 93.16 371.115 93.16H372.779C373.542 93.16 374.07 93.0107 374.363 92.712C374.662 92.408 374.811 91.88 374.811 91.128V90.024C374.811 89.272 374.662 88.7467 374.363 88.448C374.065 88.1493 373.537 88 372.779 88H371.595C370.598 88 369.907 88.1707 369.523 88.512C369.438 88.5867 369.353 88.64 369.267 88.672C369.182 88.704 369.081 88.7013 368.963 88.664L368.875 88.64C368.641 88.576 368.523 88.4213 368.523 88.176V84.112C368.523 83.8293 368.662 83.688 368.939 83.688H375.147C375.425 83.688 375.563 83.8293 375.563 84.112C375.563 84.3893 375.425 84.528 375.147 84.528H369.363V87.6C369.897 87.3067 370.641 87.16 371.595 87.16H372.779C373.771 87.16 374.497 87.3893 374.955 87.848C375.419 88.3067 375.651 89.032 375.651 90.024V91.128C375.651 92.12 375.419 92.848 374.955 93.312C374.497 93.7707 373.771 94 372.779 94H371.115Z" fill="currentColor"/>
  <rect class="icon-fg" width="40" height="19" transform="translate(234 79)" fill="currentColor"/>
  <path d="M243.922 94H237.722C237.434 94 237.29 93.8587 237.29 93.576C237.29 92.968 237.373 92.4453 237.538 92.008C237.704 91.5707 237.944 91.184 238.258 90.848C238.578 90.5067 238.965 90.1867 239.418 89.888C239.877 89.5893 240.394 89.2747 240.97 88.944C241.498 88.64 241.944 88.3707 242.306 88.136C242.669 87.896 242.944 87.6453 243.13 87.384C243.322 87.1173 243.418 86.7893 243.418 86.4C243.418 85.7013 243.282 85.216 243.01 84.944C242.738 84.6667 242.25 84.528 241.546 84.528H239.834C239.216 84.528 238.765 84.6347 238.482 84.848C238.205 85.0613 238.042 85.4347 237.994 85.968C237.978 86.1067 237.936 86.2107 237.866 86.28C237.797 86.3493 237.696 86.384 237.562 86.384C237.424 86.384 237.317 86.3467 237.242 86.272C237.168 86.192 237.136 86.0827 237.146 85.944C237.21 85.1707 237.461 84.6027 237.898 84.24C238.336 83.872 238.981 83.688 239.834 83.688H241.546C242.48 83.688 243.165 83.9067 243.602 84.344C244.04 84.7813 244.258 85.4667 244.258 86.4C244.258 86.9493 244.128 87.4133 243.866 87.792C243.61 88.1653 243.264 88.4987 242.826 88.792C242.394 89.08 241.914 89.3733 241.386 89.672C240.709 90.0613 240.141 90.4133 239.682 90.728C239.224 91.0373 238.866 91.3787 238.61 91.752C238.36 92.12 238.208 92.5893 238.154 93.16H243.922C244.205 93.16 244.346 93.2987 244.346 93.576C244.346 93.8587 244.205 94 243.922 94ZM249.728 94.032C248.571 94.032 247.726 93.7653 247.192 93.232C246.659 92.6987 246.392 91.8533 246.392 90.696V87.048C246.392 85.8907 246.659 85.048 247.192 84.52C247.731 83.992 248.576 83.7307 249.728 83.736H250.688C251.846 83.736 252.688 84.0027 253.216 84.536C253.75 85.064 254.016 85.9067 254.016 87.064V90.696C254.016 91.8533 253.75 92.6987 253.216 93.232C252.688 93.7653 251.846 94.032 250.688 94.032H249.728ZM249.728 93.192H250.688C251.302 93.192 251.79 93.112 252.152 92.952C252.515 92.792 252.776 92.5307 252.936 92.168C253.096 91.8 253.176 91.3093 253.176 90.696V87.064C253.176 86.4507 253.096 85.9627 252.936 85.6C252.776 85.2373 252.515 84.976 252.152 84.816C251.79 84.656 251.302 84.576 250.688 84.576H249.728C249.115 84.5707 248.624 84.648 248.256 84.808C247.894 84.9627 247.632 85.2213 247.472 85.584C247.312 85.9467 247.232 86.4347 247.232 87.048V90.696C247.232 91.3093 247.312 91.8 247.472 92.168C247.632 92.5307 247.894 92.792 248.256 92.952C248.619 93.112 249.11 93.192 249.728 93.192ZM250.064 89.512C249.755 89.512 249.6 89.3547 249.6 89.04V88.736C249.6 88.432 249.755 88.28 250.064 88.28H250.36C250.664 88.28 250.816 88.432 250.816 88.736V89.04C250.816 89.3547 250.664 89.512 250.36 89.512H250.064ZM262.766 94H256.566C256.278 94 256.134 93.8587 256.134 93.576C256.134 92.968 256.217 92.4453 256.382 92.008C256.547 91.5707 256.787 91.184 257.102 90.848C257.422 90.5067 257.809 90.1867 258.262 89.888C258.721 89.5893 259.238 89.2747 259.814 88.944C260.342 88.64 260.787 88.3707 261.15 88.136C261.513 87.896 261.787 87.6453 261.974 87.384C262.166 87.1173 262.262 86.7893 262.262 86.4C262.262 85.7013 262.126 85.216 261.854 84.944C261.582 84.6667 261.094 84.528 260.39 84.528H258.678C258.059 84.528 257.609 84.6347 257.326 84.848C257.049 85.0613 256.886 85.4347 256.838 85.968C256.822 86.1067 256.779 86.2107 256.71 86.28C256.641 86.3493 256.539 86.384 256.406 86.384C256.267 86.384 256.161 86.3467 256.086 86.272C256.011 86.192 255.979 86.0827 255.99 85.944C256.054 85.1707 256.305 84.6027 256.742 84.24C257.179 83.872 257.825 83.688 258.678 83.688H260.39C261.323 83.688 262.009 83.9067 262.446 84.344C262.883 84.7813 263.102 85.4667 263.102 86.4C263.102 86.9493 262.971 87.4133 262.71 87.792C262.454 88.1653 262.107 88.4987 261.67 88.792C261.238 89.08 260.758 89.3733 260.23 89.672C259.553 90.0613 258.985 90.4133 258.526 90.728C258.067 91.0373 257.71 91.3787 257.454 91.752C257.203 92.12 257.051 92.5893 256.998 93.16H262.766C263.049 93.16 263.19 93.2987 263.19 93.576C263.19 93.8587 263.049 94 262.766 94ZM269.567 94C269.284 94 269.143 93.8587 269.143 93.576L269.207 84.84L269.439 84.8L264.567 91.136L264.431 90.928L270.791 90.92C270.93 90.92 271.034 90.9573 271.103 91.032C271.178 91.1067 271.215 91.2107 271.215 91.344C271.215 91.6213 271.074 91.76 270.791 91.76H263.999C263.716 91.76 263.575 91.6213 263.575 91.344C263.575 91.2107 263.634 91.064 263.751 90.904L269.103 83.952C269.178 83.8507 269.255 83.7813 269.335 83.744C269.42 83.7067 269.524 83.688 269.647 83.688C269.914 83.688 270.047 83.8293 270.047 84.112L269.983 93.576C269.983 93.8587 269.844 94 269.567 94Z" fill="currentColor"/>
  <rect class="icon-fg" width="42" height="19" transform="translate(130 79)" fill="currentColor"/>
  <path d="M140.141 94H133.941C133.653 94 133.509 93.8587 133.509 93.576C133.509 92.968 133.592 92.4453 133.757 92.008C133.922 91.5707 134.162 91.184 134.477 90.848C134.797 90.5067 135.184 90.1867 135.637 89.888C136.096 89.5893 136.613 89.2747 137.189 88.944C137.717 88.64 138.162 88.3707 138.525 88.136C138.888 87.896 139.162 87.6453 139.349 87.384C139.541 87.1173 139.637 86.7893 139.637 86.4C139.637 85.7013 139.501 85.216 139.229 84.944C138.957 84.6667 138.469 84.528 137.765 84.528H136.053C135.434 84.528 134.984 84.6347 134.701 84.848C134.424 85.0613 134.261 85.4347 134.213 85.968C134.197 86.1067 134.154 86.2107 134.085 86.28C134.016 86.3493 133.914 86.384 133.781 86.384C133.642 86.384 133.536 86.3467 133.461 86.272C133.386 86.192 133.354 86.0827 133.365 85.944C133.429 85.1707 133.68 84.6027 134.117 84.24C134.554 83.872 135.2 83.688 136.053 83.688H137.765C138.698 83.688 139.384 83.9067 139.821 84.344C140.258 84.7813 140.477 85.4667 140.477 86.4C140.477 86.9493 140.346 87.4133 140.085 87.792C139.829 88.1653 139.482 88.4987 139.045 88.792C138.613 89.08 138.133 89.3733 137.605 89.672C136.928 90.0613 136.36 90.4133 135.901 90.728C135.442 91.0373 135.085 91.3787 134.829 91.752C134.578 92.12 134.426 92.5893 134.373 93.16H140.141C140.424 93.16 140.565 93.2987 140.565 93.576C140.565 93.8587 140.424 94 140.141 94ZM145.947 94.032C144.79 94.032 143.944 93.7653 143.411 93.232C142.878 92.6987 142.611 91.8533 142.611 90.696V87.048C142.611 85.8907 142.878 85.048 143.411 84.52C143.95 83.992 144.795 83.7307 145.947 83.736H146.907C148.064 83.736 148.907 84.0027 149.435 84.536C149.968 85.064 150.235 85.9067 150.235 87.064V90.696C150.235 91.8533 149.968 92.6987 149.435 93.232C148.907 93.7653 148.064 94.032 146.907 94.032H145.947ZM145.947 93.192H146.907C147.52 93.192 148.008 93.112 148.371 92.952C148.734 92.792 148.995 92.5307 149.155 92.168C149.315 91.8 149.395 91.3093 149.395 90.696V87.064C149.395 86.4507 149.315 85.9627 149.155 85.6C148.995 85.2373 148.734 84.976 148.371 84.816C148.008 84.656 147.52 84.576 146.907 84.576H145.947C145.334 84.5707 144.843 84.648 144.475 84.808C144.112 84.9627 143.851 85.2213 143.691 85.584C143.531 85.9467 143.451 86.4347 143.451 87.048V90.696C143.451 91.3093 143.531 91.8 143.691 92.168C143.851 92.5307 144.112 92.792 144.475 92.952C144.838 93.112 145.328 93.192 145.947 93.192ZM146.283 89.512C145.974 89.512 145.819 89.3547 145.819 89.04V88.736C145.819 88.432 145.974 88.28 146.283 88.28H146.579C146.883 88.28 147.035 88.432 147.035 88.736V89.04C147.035 89.3547 146.883 89.512 146.579 89.512H146.283ZM158.985 94H152.785C152.497 94 152.353 93.8587 152.353 93.576C152.353 92.968 152.435 92.4453 152.601 92.008C152.766 91.5707 153.006 91.184 153.321 90.848C153.641 90.5067 154.027 90.1867 154.481 89.888C154.939 89.5893 155.457 89.2747 156.033 88.944C156.561 88.64 157.006 88.3707 157.369 88.136C157.731 87.896 158.006 87.6453 158.193 87.384C158.385 87.1173 158.481 86.7893 158.481 86.4C158.481 85.7013 158.345 85.216 158.073 84.944C157.801 84.6667 157.313 84.528 156.609 84.528H154.897C154.278 84.528 153.827 84.6347 153.545 84.848C153.267 85.0613 153.105 85.4347 153.057 85.968C153.041 86.1067 152.998 86.2107 152.929 86.28C152.859 86.3493 152.758 86.384 152.625 86.384C152.486 86.384 152.379 86.3467 152.305 86.272C152.23 86.192 152.198 86.0827 152.209 85.944C152.273 85.1707 152.523 84.6027 152.961 84.24C153.398 83.872 154.043 83.688 154.897 83.688H156.609C157.542 83.688 158.227 83.9067 158.665 84.344C159.102 84.7813 159.321 85.4667 159.321 86.4C159.321 86.9493 159.19 87.4133 158.929 87.792C158.673 88.1653 158.326 88.4987 157.889 88.792C157.457 89.08 156.977 89.3733 156.449 89.672C155.771 90.0613 155.203 90.4133 154.745 90.728C154.286 91.0373 153.929 91.3787 153.673 91.752C153.422 92.12 153.27 92.5893 153.217 93.16H158.985C159.267 93.16 159.409 93.2987 159.409 93.576C159.409 93.8587 159.267 94 158.985 94ZM163.774 93.984C162.868 93.984 162.182 93.792 161.718 93.408C161.254 93.0187 160.99 92.408 160.926 91.576C160.916 91.4373 160.948 91.3307 161.022 91.256C161.097 91.176 161.204 91.136 161.342 91.136C161.604 91.136 161.745 91.2747 161.766 91.552C161.82 92.144 161.996 92.5573 162.294 92.792C162.598 93.0267 163.092 93.144 163.774 93.144H165.598C166.361 93.144 166.889 92.9973 167.182 92.704C167.481 92.4053 167.63 91.8827 167.63 91.136C167.63 90.384 167.481 89.8613 167.182 89.568C166.889 89.2693 166.361 89.12 165.598 89.12H164.118C163.836 89.12 163.694 88.9813 163.694 88.704C163.694 88.4213 163.836 88.28 164.118 88.28H165.814C166.406 88.2747 166.814 88.1173 167.038 87.808C167.262 87.4933 167.374 87.024 167.374 86.4C167.374 85.7013 167.238 85.216 166.966 84.944C166.694 84.6667 166.206 84.528 165.502 84.528H163.95C163.332 84.528 162.881 84.6347 162.598 84.848C162.321 85.0613 162.158 85.4347 162.11 85.968C162.078 86.2453 161.934 86.384 161.678 86.384C161.54 86.384 161.433 86.3467 161.358 86.272C161.284 86.192 161.254 86.0827 161.27 85.944C161.329 85.1707 161.577 84.6027 162.014 84.24C162.452 83.872 163.097 83.688 163.95 83.688H165.502C166.436 83.688 167.121 83.9067 167.558 84.344C167.996 84.7813 168.214 85.4667 168.214 86.4C168.214 87.472 167.828 88.2053 167.054 88.6C167.545 88.808 167.902 89.1227 168.126 89.544C168.356 89.96 168.47 90.4907 168.47 91.136C168.47 92.1173 168.241 92.8373 167.782 93.296C167.324 93.7547 166.596 93.984 165.598 93.984H163.774Z" fill="currentColor"/>
  <rect class="icon-fg" width="41" height="19" transform="translate(27 79)" fill="currentColor"/>
  <path d="M36.68 94H30.48C30.192 94 30.048 93.8587 30.048 93.576C30.048 92.968 30.1307 92.4453 30.296 92.008C30.4613 91.5707 30.7013 91.184 31.016 90.848C31.336 90.5067 31.7227 90.1867 32.176 89.888C32.6347 89.5893 33.152 89.2747 33.728 88.944C34.256 88.64 34.7013 88.3707 35.064 88.136C35.4267 87.896 35.7013 87.6453 35.888 87.384C36.08 87.1173 36.176 86.7893 36.176 86.4C36.176 85.7013 36.04 85.216 35.768 84.944C35.496 84.6667 35.008 84.528 34.304 84.528H32.592C31.9733 84.528 31.5227 84.6347 31.24 84.848C30.9627 85.0613 30.8 85.4347 30.752 85.968C30.736 86.1067 30.6933 86.2107 30.624 86.28C30.5547 86.3493 30.4533 86.384 30.32 86.384C30.1813 86.384 30.0747 86.3467 30 86.272C29.9253 86.192 29.8933 86.0827 29.904 85.944C29.968 85.1707 30.2187 84.6027 30.656 84.24C31.0933 83.872 31.7387 83.688 32.592 83.688H34.304C35.2373 83.688 35.9227 83.9067 36.36 84.344C36.7973 84.7813 37.016 85.4667 37.016 86.4C37.016 86.9493 36.8853 87.4133 36.624 87.792C36.368 88.1653 36.0213 88.4987 35.584 88.792C35.152 89.08 34.672 89.3733 34.144 89.672C33.4667 90.0613 32.8987 90.4133 32.44 90.728C31.9813 91.0373 31.624 91.3787 31.368 91.752C31.1173 92.12 30.9653 92.5893 30.912 93.16H36.68C36.9627 93.16 37.104 93.2987 37.104 93.576C37.104 93.8587 36.9627 94 36.68 94ZM42.4861 94.032C41.3288 94.032 40.4835 93.7653 39.9501 93.232C39.4168 92.6987 39.1501 91.8533 39.1501 90.696V87.048C39.1501 85.8907 39.4168 85.048 39.9501 84.52C40.4888 83.992 41.3341 83.7307 42.4861 83.736H43.4461C44.6035 83.736 45.4461 84.0027 45.9741 84.536C46.5075 85.064 46.7741 85.9067 46.7741 87.064V90.696C46.7741 91.8533 46.5075 92.6987 45.9741 93.232C45.4461 93.7653 44.6035 94.032 43.4461 94.032H42.4861ZM42.4861 93.192H43.4461C44.0595 93.192 44.5475 93.112 44.9101 92.952C45.2728 92.792 45.5341 92.5307 45.6941 92.168C45.8541 91.8 45.9341 91.3093 45.9341 90.696V87.064C45.9341 86.4507 45.8541 85.9627 45.6941 85.6C45.5341 85.2373 45.2728 84.976 44.9101 84.816C44.5475 84.656 44.0595 84.576 43.4461 84.576H42.4861C41.8728 84.5707 41.3821 84.648 41.0141 84.808C40.6515 84.9627 40.3901 85.2213 40.2301 85.584C40.0701 85.9467 39.9901 86.4347 39.9901 87.048V90.696C39.9901 91.3093 40.0701 91.8 40.2301 92.168C40.3901 92.5307 40.6515 92.792 41.0141 92.952C41.3768 93.112 41.8675 93.192 42.4861 93.192ZM42.8221 89.512C42.5128 89.512 42.3581 89.3547 42.3581 89.04V88.736C42.3581 88.432 42.5128 88.28 42.8221 88.28H43.1181C43.4221 88.28 43.5741 88.432 43.5741 88.736V89.04C43.5741 89.3547 43.4221 89.512 43.1181 89.512H42.8221ZM55.5238 94H49.3238C49.0358 94 48.8918 93.8587 48.8918 93.576C48.8918 92.968 48.9744 92.4453 49.1398 92.008C49.3051 91.5707 49.5451 91.184 49.8598 90.848C50.1798 90.5067 50.5664 90.1867 51.0198 89.888C51.4784 89.5893 51.9958 89.2747 52.5718 88.944C53.0998 88.64 53.5451 88.3707 53.9078 88.136C54.2704 87.896 54.5451 87.6453 54.7318 87.384C54.9238 87.1173 55.0198 86.7893 55.0198 86.4C55.0198 85.7013 54.8838 85.216 54.6118 84.944C54.3398 84.6667 53.8518 84.528 53.1478 84.528H51.4358C50.8171 84.528 50.3664 84.6347 50.0838 84.848C49.8064 85.0613 49.6438 85.4347 49.5958 85.968C49.5798 86.1067 49.5371 86.2107 49.4678 86.28C49.3984 86.3493 49.2971 86.384 49.1638 86.384C49.0251 86.384 48.9184 86.3467 48.8438 86.272C48.7691 86.192 48.7371 86.0827 48.7478 85.944C48.8118 85.1707 49.0624 84.6027 49.4998 84.24C49.9371 83.872 50.5824 83.688 51.4358 83.688H53.1478C54.0811 83.688 54.7664 83.9067 55.2038 84.344C55.6411 84.7813 55.8598 85.4667 55.8598 86.4C55.8598 86.9493 55.7291 87.4133 55.4678 87.792C55.2118 88.1653 54.8651 88.4987 54.4278 88.792C53.9958 89.08 53.5158 89.3733 52.9878 89.672C52.3104 90.0613 51.7424 90.4133 51.2838 90.728C50.8251 91.0373 50.4678 91.3787 50.2118 91.752C49.9611 92.12 49.8091 92.5893 49.7558 93.16H55.5238C55.8064 93.16 55.9478 93.2987 55.9478 93.576C55.9478 93.8587 55.8064 94 55.5238 94ZM64.6019 94H58.4019C58.1139 94 57.9699 93.8587 57.9699 93.576C57.9699 92.968 58.0525 92.4453 58.2179 92.008C58.3832 91.5707 58.6232 91.184 58.9379 90.848C59.2579 90.5067 59.6445 90.1867 60.0979 89.888C60.5565 89.5893 61.0739 89.2747 61.6499 88.944C62.1779 88.64 62.6232 88.3707 62.9859 88.136C63.3485 87.896 63.6232 87.6453 63.8099 87.384C64.0019 87.1173 64.0979 86.7893 64.0979 86.4C64.0979 85.7013 63.9619 85.216 63.6899 84.944C63.4179 84.6667 62.9299 84.528 62.2259 84.528H60.5139C59.8952 84.528 59.4445 84.6347 59.1619 84.848C58.8845 85.0613 58.7219 85.4347 58.6739 85.968C58.6579 86.1067 58.6152 86.2107 58.5459 86.28C58.4765 86.3493 58.3752 86.384 58.2419 86.384C58.1032 86.384 57.9965 86.3467 57.9219 86.272C57.8472 86.192 57.8152 86.0827 57.8259 85.944C57.8899 85.1707 58.1405 84.6027 58.5779 84.24C59.0152 83.872 59.6605 83.688 60.5139 83.688H62.2259C63.1592 83.688 63.8445 83.9067 64.2819 84.344C64.7192 84.7813 64.9379 85.4667 64.9379 86.4C64.9379 86.9493 64.8072 87.4133 64.5459 87.792C64.2899 88.1653 63.9432 88.4987 63.5059 88.792C63.0739 89.08 62.5939 89.3733 62.0659 89.672C61.3885 90.0613 60.8205 90.4133 60.3619 90.728C59.9032 91.0373 59.5459 91.3787 59.2899 91.752C59.0392 92.12 58.8872 92.5893 58.8339 93.16H64.6019C64.8845 93.16 65.0259 93.2987 65.0259 93.576C65.0259 93.8587 64.8845 94 64.6019 94Z" fill="currentColor"/>
  <path class="icon-fg" d="M214 138C214 133.582 217.582 130 222 130H401C405.418 130 409 133.582 409 138V167C409 171.418 405.418 175 401 175H222C217.582 175 214 171.418 214 167V138Z" fill="currentColor"/>
  <path d="M222 130.5H401C405.142 130.5 408.5 133.858 408.5 138V167C408.5 171.142 405.142 174.5 401 174.5H222C217.858 174.5 214.5 171.142 214.5 167V138C214.5 133.858 217.858 130.5 222 130.5Z" stroke="currentColor"/>
  <path d="M226.968 150C226.109 150 225.47 149.82 225.05 149.461C224.635 149.102 224.401 148.53 224.35 147.746C224.341 147.625 224.366 147.531 224.427 147.466C224.488 147.396 224.581 147.361 224.707 147.361C224.94 147.361 225.066 147.485 225.085 147.732C225.122 148.311 225.281 148.712 225.561 148.936C225.846 149.155 226.315 149.265 226.968 149.265H227.542C228.023 149.265 228.401 149.207 228.676 149.09C228.951 148.973 229.147 148.777 229.264 148.502C229.385 148.222 229.446 147.842 229.446 147.361V141.348C229.446 141.101 229.567 140.977 229.81 140.977C230.057 140.977 230.181 141.101 230.181 141.348V147.361C230.181 148.285 229.971 148.957 229.551 149.377C229.136 149.792 228.466 150 227.542 150H226.968ZM238.291 143.385C238.538 143.385 238.662 143.506 238.662 143.749V149.629C238.662 149.876 238.538 150 238.291 150C238.048 150 237.927 149.876 237.927 149.629V148.964C237.483 149.655 236.681 150 235.519 150H235.127C234.254 150 233.615 149.797 233.209 149.391C232.807 148.985 232.607 148.346 232.607 147.473V143.749C232.607 143.506 232.728 143.385 232.971 143.385C233.218 143.385 233.342 143.506 233.342 143.749V147.473C233.342 148.14 233.472 148.607 233.734 148.873C234 149.134 234.464 149.265 235.127 149.265H235.519C236.242 149.265 236.811 149.148 237.227 148.915C237.642 148.682 237.875 148.325 237.927 147.844V143.749C237.927 143.506 238.048 143.385 238.291 143.385ZM241.649 150C241.401 150 241.278 149.876 241.278 149.629V143.749C241.278 143.506 241.401 143.385 241.649 143.385C241.891 143.385 242.013 143.506 242.013 143.749V144.421C242.456 143.73 243.259 143.385 244.421 143.385H244.813C245.685 143.385 246.322 143.588 246.724 143.994C247.13 144.395 247.333 145.032 247.333 145.905V149.629C247.333 149.876 247.211 150 246.969 150C246.721 150 246.598 149.876 246.598 149.629V145.905C246.598 145.238 246.465 144.773 246.199 144.512C245.937 144.251 245.475 144.12 244.813 144.12H244.421C243.697 144.12 243.128 144.234 242.713 144.463C242.297 144.692 242.064 145.049 242.013 145.534V149.629C242.013 149.876 241.891 150 241.649 150ZM250.033 142.111C249.711 142.111 249.55 141.945 249.55 141.614V141.299C249.55 140.977 249.711 140.816 250.033 140.816H250.348C250.66 140.816 250.817 140.977 250.817 141.299V141.614C250.817 141.945 250.66 142.111 250.348 142.111H250.033ZM250.194 150C249.946 150 249.823 149.876 249.823 149.629V143.749C249.823 143.506 249.946 143.385 250.194 143.385C250.436 143.385 250.558 143.506 250.558 143.749V149.629C250.558 149.876 250.436 150 250.194 150ZM255.51 150C254.638 150 253.998 149.799 253.592 149.398C253.186 148.992 252.983 148.355 252.983 147.487V145.905C252.983 145.023 253.186 144.381 253.592 143.98C253.998 143.574 254.638 143.376 255.51 143.385H256.658C257.531 143.385 258.168 143.588 258.569 143.994C258.975 144.395 259.178 145.032 259.178 145.905V147.473C259.178 148.346 258.975 148.985 258.569 149.391C258.168 149.797 257.531 150 256.658 150H255.51ZM253.718 147.487C253.718 148.145 253.849 148.607 254.11 148.873C254.376 149.134 254.843 149.265 255.51 149.265H256.658C257.326 149.265 257.79 149.134 258.051 148.873C258.313 148.607 258.443 148.14 258.443 147.473V145.905C258.443 145.238 258.313 144.773 258.051 144.512C257.79 144.251 257.326 144.12 256.658 144.12H255.51C255.062 144.115 254.708 144.169 254.446 144.281C254.185 144.393 253.998 144.58 253.886 144.841C253.774 145.102 253.718 145.457 253.718 145.905V147.487ZM261.979 150C261.731 150 261.608 149.876 261.608 149.629V143.749C261.608 143.506 261.731 143.385 261.979 143.385C262.221 143.385 262.343 143.506 262.343 143.749V144.827C262.585 144.36 262.935 144.003 263.393 143.756C263.855 143.509 264.401 143.385 265.031 143.385C265.278 143.385 265.402 143.506 265.402 143.749C265.402 143.996 265.278 144.12 265.031 144.12C264.2 144.12 263.556 144.309 263.099 144.687C262.641 145.06 262.389 145.595 262.343 146.29V149.629C262.343 149.876 262.221 150 261.979 150ZM272.716 149.986C271.881 149.986 271.26 149.802 270.854 149.433C270.453 149.06 270.238 148.474 270.21 147.676C270.205 147.564 270.236 147.475 270.301 147.41C270.371 147.34 270.462 147.305 270.574 147.305C270.686 147.305 270.775 147.338 270.84 147.403C270.905 147.468 270.943 147.557 270.952 147.669C270.971 148.257 271.111 148.668 271.372 148.901C271.633 149.134 272.081 149.251 272.716 149.251H274.732C275.395 149.251 275.854 149.123 276.111 148.866C276.372 148.605 276.503 148.147 276.503 147.494C276.503 146.831 276.372 146.372 276.111 146.115C275.854 145.854 275.395 145.723 274.732 145.723H272.814C271.993 145.723 271.391 145.532 271.008 145.149C270.625 144.766 270.434 144.167 270.434 143.35C270.434 142.533 270.623 141.934 271.001 141.551C271.384 141.168 271.983 140.977 272.8 140.977H274.76C275.544 140.977 276.125 141.152 276.503 141.502C276.886 141.852 277.091 142.403 277.119 143.154C277.128 143.266 277.098 143.357 277.028 143.427C276.963 143.492 276.872 143.525 276.755 143.525C276.648 143.525 276.561 143.492 276.496 143.427C276.431 143.362 276.393 143.273 276.384 143.161C276.365 142.624 276.235 142.249 275.992 142.034C275.749 141.819 275.339 141.712 274.76 141.712H272.8C272.189 141.712 271.764 141.833 271.526 142.076C271.288 142.314 271.169 142.739 271.169 143.35C271.169 143.961 271.288 144.388 271.526 144.631C271.769 144.869 272.198 144.988 272.814 144.988H274.732C275.6 144.988 276.235 145.191 276.636 145.597C277.037 145.998 277.238 146.631 277.238 147.494C277.238 148.357 277.037 148.99 276.636 149.391C276.235 149.788 275.6 149.986 274.732 149.986H272.716ZM282.006 150C281.134 150 280.494 149.799 280.088 149.398C279.682 148.992 279.479 148.355 279.479 147.487V145.905C279.479 145.023 279.682 144.381 280.088 143.98C280.494 143.574 281.134 143.376 282.006 143.385H283.154C284.027 143.385 284.664 143.588 285.065 143.994C285.471 144.395 285.674 145.032 285.674 145.905V147.473C285.674 148.346 285.471 148.985 285.065 149.391C284.664 149.797 284.027 150 283.154 150H282.006ZM280.214 147.487C280.214 148.145 280.345 148.607 280.606 148.873C280.872 149.134 281.339 149.265 282.006 149.265H283.154C283.822 149.265 284.286 149.134 284.547 148.873C284.809 148.607 284.939 148.14 284.939 147.473V145.905C284.939 145.238 284.809 144.773 284.547 144.512C284.286 144.251 283.822 144.12 283.154 144.12H282.006C281.558 144.115 281.204 144.169 280.942 144.281C280.681 144.393 280.494 144.58 280.382 144.841C280.27 145.102 280.214 145.457 280.214 145.905V147.487ZM288.594 150C288.347 150 288.223 149.876 288.223 149.629V144.12H287.635C287.388 144.12 287.264 143.996 287.264 143.749C287.264 143.506 287.388 143.385 287.635 143.385H288.223V142.769C288.223 141.91 288.421 141.283 288.818 140.886C289.219 140.489 289.849 140.291 290.708 140.291C290.946 140.291 291.065 140.412 291.065 140.655C291.065 140.902 290.946 141.026 290.708 141.026C290.055 141.026 289.6 141.154 289.343 141.411C289.086 141.663 288.958 142.116 288.958 142.769V143.385H290.694C290.941 143.385 291.065 143.506 291.065 143.749C291.065 143.996 290.941 144.12 290.694 144.12H288.958V149.629C288.958 149.876 288.837 150 288.594 150ZM295.4 150C294.541 150 293.913 149.802 293.517 149.405C293.12 149.008 292.922 148.383 292.922 147.529V144.12H292.089C291.841 144.12 291.718 143.996 291.718 143.749C291.718 143.506 291.841 143.385 292.089 143.385H292.922V141.88C292.922 141.633 293.043 141.509 293.286 141.509C293.533 141.509 293.657 141.633 293.657 141.88V143.385H295.414C295.656 143.385 295.778 143.506 295.778 143.749C295.778 143.996 295.656 144.12 295.414 144.12H293.657V147.529C293.657 148.182 293.783 148.635 294.035 148.887C294.291 149.139 294.746 149.265 295.4 149.265C295.535 149.265 295.631 149.295 295.687 149.356C295.747 149.417 295.778 149.508 295.778 149.629C295.778 149.876 295.652 150 295.4 150ZM299.164 150C298.945 150 298.803 149.9 298.737 149.699L296.763 143.882C296.684 143.644 296.761 143.488 296.994 143.413C297.223 143.343 297.375 143.42 297.449 143.644L299.367 149.265H299.073L300.907 143.749C300.973 143.553 301.113 143.455 301.327 143.455C301.533 143.455 301.666 143.555 301.726 143.756L303.441 149.251H303.133L305.149 143.644C305.243 143.406 305.401 143.329 305.625 143.413C305.859 143.502 305.933 143.66 305.849 143.889L303.686 149.699C303.612 149.9 303.467 150 303.252 150C303.014 150 302.865 149.9 302.804 149.699L301.215 144.61H301.355L299.605 149.699C299.568 149.816 299.51 149.895 299.43 149.937C299.351 149.979 299.262 150 299.164 150ZM309.348 150C308.62 150 308.086 149.832 307.745 149.496C307.409 149.155 307.241 148.621 307.241 147.893C307.241 147.165 307.412 146.631 307.752 146.29C308.093 145.949 308.625 145.779 309.348 145.779H312.533C312.524 145.163 312.384 144.734 312.113 144.491C311.847 144.244 311.392 144.12 310.748 144.12H309.936C309.344 144.12 308.91 144.183 308.634 144.309C308.359 144.435 308.189 144.65 308.123 144.953C308.091 145.07 308.046 145.156 307.99 145.212C307.939 145.263 307.855 145.289 307.738 145.289C307.617 145.289 307.521 145.256 307.451 145.191C307.386 145.121 307.363 145.028 307.381 144.911C307.442 144.379 307.682 143.992 308.102 143.749C308.527 143.506 309.138 143.385 309.936 143.385H310.748C311.621 143.385 312.258 143.588 312.659 143.994C313.065 144.395 313.268 145.032 313.268 145.905V149.629C313.268 149.876 313.147 150 312.904 150C312.657 150 312.533 149.876 312.533 149.629V148.936C312.085 149.645 311.285 150 310.132 150H309.348ZM309.348 149.265H310.132C310.585 149.265 310.982 149.216 311.322 149.118C311.668 149.015 311.945 148.852 312.155 148.628C312.365 148.404 312.491 148.105 312.533 147.732V146.514H309.348C308.83 146.514 308.471 146.614 308.27 146.815C308.074 147.011 307.976 147.37 307.976 147.893C307.976 148.411 308.074 148.77 308.27 148.971C308.471 149.167 308.83 149.265 309.348 149.265ZM316.133 150C315.886 150 315.762 149.876 315.762 149.629V143.749C315.762 143.506 315.886 143.385 316.133 143.385C316.376 143.385 316.497 143.506 316.497 143.749V144.827C316.74 144.36 317.09 144.003 317.547 143.756C318.009 143.509 318.555 143.385 319.185 143.385C319.432 143.385 319.556 143.506 319.556 143.749C319.556 143.996 319.432 144.12 319.185 144.12C318.354 144.12 317.71 144.309 317.253 144.687C316.796 145.06 316.544 145.595 316.497 146.29V149.629C316.497 149.876 316.376 150 316.133 150ZM321.312 146.976V147.487C321.312 148.145 321.443 148.607 321.704 148.873C321.97 149.134 322.437 149.265 323.104 149.265H324.252C324.84 149.265 325.267 149.19 325.533 149.041C325.804 148.887 325.965 148.623 326.016 148.25C326.035 148.133 326.072 148.045 326.128 147.984C326.189 147.923 326.28 147.893 326.401 147.893C326.522 147.893 326.613 147.928 326.674 147.998C326.739 148.063 326.765 148.157 326.751 148.278C326.69 148.866 326.455 149.3 326.044 149.58C325.633 149.86 325.036 150 324.252 150H323.104C322.231 150 321.592 149.799 321.186 149.398C320.78 148.992 320.577 148.355 320.577 147.487V145.905C320.577 145.023 320.78 144.381 321.186 143.98C321.592 143.574 322.231 143.376 323.104 143.385H324.252C325.125 143.385 325.762 143.588 326.163 143.994C326.569 144.395 326.772 145.032 326.772 145.905V146.605C326.772 146.852 326.651 146.976 326.408 146.976H321.312ZM323.104 144.12C322.437 144.111 321.97 144.239 321.704 144.505C321.443 144.766 321.312 145.233 321.312 145.905V146.241H326.037V145.905C326.037 145.238 325.906 144.773 325.645 144.512C325.384 144.251 324.919 144.12 324.252 144.12H323.104ZM333.086 150C332.839 150 332.715 149.876 332.715 149.629V141.348C332.715 141.101 332.839 140.977 333.086 140.977H336.46C337.622 140.977 338.467 141.243 338.994 141.775C339.526 142.307 339.792 143.154 339.792 144.316V146.661C339.792 147.823 339.526 148.67 338.994 149.202C338.467 149.734 337.622 150 336.46 150H333.086ZM333.45 149.265H336.46C337.095 149.265 337.601 149.181 337.979 149.013C338.362 148.845 338.637 148.572 338.805 148.194C338.973 147.811 339.057 147.3 339.057 146.661V144.316C339.057 143.681 338.973 143.175 338.805 142.797C338.637 142.414 338.362 142.139 337.979 141.971C337.601 141.798 337.095 141.712 336.46 141.712H333.45V149.265ZM342.763 146.976V147.487C342.763 148.145 342.894 148.607 343.155 148.873C343.421 149.134 343.888 149.265 344.555 149.265H345.703C346.291 149.265 346.718 149.19 346.984 149.041C347.255 148.887 347.416 148.623 347.467 148.25C347.486 148.133 347.523 148.045 347.579 147.984C347.64 147.923 347.731 147.893 347.852 147.893C347.974 147.893 348.065 147.928 348.125 147.998C348.191 148.063 348.216 148.157 348.202 148.278C348.142 148.866 347.906 149.3 347.495 149.58C347.085 149.86 346.487 150 345.703 150H344.555C343.683 150 343.043 149.799 342.637 149.398C342.231 148.992 342.028 148.355 342.028 147.487V145.905C342.028 145.023 342.231 144.381 342.637 143.98C343.043 143.574 343.683 143.376 344.555 143.385H345.703C346.576 143.385 347.213 143.588 347.614 143.994C348.02 144.395 348.223 145.032 348.223 145.905V146.605C348.223 146.852 348.102 146.976 347.859 146.976H342.763ZM344.555 144.12C343.888 144.111 343.421 144.239 343.155 144.505C342.894 144.766 342.763 145.233 342.763 145.905V146.241H347.488V145.905C347.488 145.238 347.358 144.773 347.096 144.512C346.835 144.251 346.371 144.12 345.703 144.12H344.555ZM352.92 149.72C352.869 149.832 352.806 149.907 352.731 149.944C352.657 149.981 352.57 150 352.472 150C352.267 150 352.122 149.904 352.038 149.713L349.441 143.896C349.343 143.667 349.411 143.509 349.644 143.42C349.864 143.327 350.022 143.392 350.12 143.616L352.71 149.412H352.262L355.02 143.609C355.072 143.502 355.139 143.432 355.223 143.399C355.307 143.366 355.403 143.373 355.51 143.42C355.739 143.523 355.802 143.686 355.699 143.91L352.92 149.72ZM357.666 146.976V147.487C357.666 148.145 357.796 148.607 358.058 148.873C358.324 149.134 358.79 149.265 359.458 149.265H360.606C361.194 149.265 361.621 149.19 361.887 149.041C362.157 148.887 362.318 148.623 362.37 148.25C362.388 148.133 362.426 148.045 362.482 147.984C362.542 147.923 362.633 147.893 362.755 147.893C362.876 147.893 362.967 147.928 363.028 147.998C363.093 148.063 363.119 148.157 363.105 148.278C363.044 148.866 362.808 149.3 362.398 149.58C361.987 149.86 361.39 150 360.606 150H359.458C358.585 150 357.946 149.799 357.54 149.398C357.134 148.992 356.931 148.355 356.931 147.487V145.905C356.931 145.023 357.134 144.381 357.54 143.98C357.946 143.574 358.585 143.376 359.458 143.385H360.606C361.478 143.385 362.115 143.588 362.517 143.994C362.923 144.395 363.126 145.032 363.126 145.905V146.605C363.126 146.852 363.004 146.976 362.762 146.976H357.666ZM359.458 144.12C358.79 144.111 358.324 144.239 358.058 144.505C357.796 144.766 357.666 145.233 357.666 145.905V146.241H362.391V145.905C362.391 145.238 362.26 144.773 361.999 144.512C361.737 144.251 361.273 144.12 360.606 144.12H359.458ZM367.48 150C366.817 150 366.33 149.846 366.017 149.538C365.709 149.23 365.555 148.747 365.555 148.089V140.655C365.555 140.412 365.679 140.291 365.926 140.291C366.169 140.291 366.29 140.412 366.29 140.655V148.089C366.29 148.542 366.374 148.852 366.542 149.02C366.71 149.183 367.02 149.265 367.473 149.265C367.725 149.265 367.851 149.386 367.851 149.629C367.856 149.876 367.732 150 367.48 150ZM371.694 150C370.821 150 370.182 149.799 369.776 149.398C369.37 148.992 369.167 148.355 369.167 147.487V145.905C369.167 145.023 369.37 144.381 369.776 143.98C370.182 143.574 370.821 143.376 371.694 143.385H372.842C373.715 143.385 374.352 143.588 374.753 143.994C375.159 144.395 375.362 145.032 375.362 145.905V147.473C375.362 148.346 375.159 148.985 374.753 149.391C374.352 149.797 373.715 150 372.842 150H371.694ZM369.902 147.487C369.902 148.145 370.033 148.607 370.294 148.873C370.56 149.134 371.027 149.265 371.694 149.265H372.842C373.509 149.265 373.974 149.134 374.235 148.873C374.496 148.607 374.627 148.14 374.627 147.473V145.905C374.627 145.238 374.496 144.773 374.235 144.512C373.974 144.251 373.509 144.12 372.842 144.12H371.694C371.246 144.115 370.891 144.169 370.63 144.281C370.369 144.393 370.182 144.58 370.07 144.841C369.958 145.102 369.902 145.457 369.902 145.905V147.487ZM378.162 152.8C377.915 152.8 377.791 152.676 377.791 152.429V143.749C377.791 143.506 377.915 143.385 378.162 143.385C378.405 143.385 378.526 143.506 378.526 143.749V144.372C378.736 144.045 379.037 143.8 379.429 143.637C379.821 143.469 380.323 143.385 380.934 143.385H381.466C382.339 143.385 382.976 143.588 383.377 143.994C383.783 144.395 383.986 145.032 383.986 145.905V147.473C383.986 148.346 383.783 148.985 383.377 149.391C382.976 149.797 382.339 150 381.466 150H378.526V152.429C378.526 152.676 378.405 152.8 378.162 152.8ZM378.526 149.265H381.466C382.134 149.265 382.598 149.134 382.859 148.873C383.121 148.607 383.251 148.14 383.251 147.473V145.905C383.251 145.238 383.121 144.773 382.859 144.512C382.598 144.251 382.134 144.12 381.466 144.12H380.934C380.188 144.12 379.614 144.237 379.212 144.47C378.816 144.703 378.587 145.063 378.526 145.548V149.265ZM386.964 146.976V147.487C386.964 148.145 387.095 148.607 387.356 148.873C387.622 149.134 388.089 149.265 388.756 149.265H389.904C390.492 149.265 390.919 149.19 391.185 149.041C391.456 148.887 391.617 148.623 391.668 148.25C391.687 148.133 391.724 148.045 391.78 147.984C391.841 147.923 391.932 147.893 392.053 147.893C392.175 147.893 392.266 147.928 392.326 147.998C392.392 148.063 392.417 148.157 392.403 148.278C392.343 148.866 392.107 149.3 391.696 149.58C391.286 149.86 390.688 150 389.904 150H388.756C387.884 150 387.244 149.799 386.838 149.398C386.432 148.992 386.229 148.355 386.229 147.487V145.905C386.229 145.023 386.432 144.381 386.838 143.98C387.244 143.574 387.884 143.376 388.756 143.385H389.904C390.777 143.385 391.414 143.588 391.815 143.994C392.221 144.395 392.424 145.032 392.424 145.905V146.605C392.424 146.852 392.303 146.976 392.06 146.976H386.964ZM388.756 144.12C388.089 144.111 387.622 144.239 387.356 144.505C387.095 144.766 386.964 145.233 386.964 145.905V146.241H391.689V145.905C391.689 145.238 391.559 144.773 391.297 144.512C391.036 144.251 390.572 144.12 389.904 144.12H388.756ZM395.225 150C394.978 150 394.854 149.876 394.854 149.629V143.749C394.854 143.506 394.978 143.385 395.225 143.385C395.468 143.385 395.589 143.506 395.589 143.749V144.827C395.832 144.36 396.182 144.003 396.639 143.756C397.101 143.509 397.647 143.385 398.277 143.385C398.524 143.385 398.648 143.506 398.648 143.749C398.648 143.996 398.524 144.12 398.277 144.12C397.446 144.12 396.802 144.309 396.345 144.687C395.888 145.06 395.636 145.595 395.589 146.29V149.629C395.589 149.876 395.468 150 395.225 150ZM227.462 166C226.594 166 225.96 165.8 225.56 165.4C225.16 165 224.96 164.366 224.96 163.498V160.768C224.96 159.892 225.158 159.256 225.554 158.86C225.954 158.464 226.586 158.266 227.45 158.266H228.902C229.638 158.266 230.186 158.42 230.546 158.728C230.906 159.032 231.104 159.522 231.14 160.198C231.152 160.306 231.13 160.388 231.074 160.444C231.022 160.5 230.944 160.528 230.84 160.528C230.64 160.528 230.53 160.422 230.51 160.21C230.482 159.714 230.346 159.372 230.102 159.184C229.858 158.992 229.458 158.896 228.902 158.896H227.45C226.99 158.896 226.624 158.956 226.352 159.076C226.08 159.192 225.884 159.388 225.764 159.664C225.648 159.936 225.59 160.304 225.59 160.768V163.498C225.59 163.962 225.65 164.33 225.77 164.602C225.89 164.874 226.086 165.07 226.358 165.19C226.63 165.31 226.998 165.37 227.462 165.37H228.902C229.458 165.37 229.858 165.276 230.102 165.088C230.346 164.896 230.482 164.552 230.51 164.056C230.53 163.844 230.64 163.738 230.84 163.738C230.944 163.738 231.022 163.768 231.074 163.828C231.13 163.884 231.152 163.964 231.14 164.068C231.104 164.744 230.906 165.236 230.546 165.544C230.186 165.848 229.638 166 228.902 166H227.462ZM234.626 166C233.878 166 233.33 165.828 232.982 165.484C232.634 165.136 232.46 164.59 232.46 163.846V162.49C232.46 161.734 232.634 161.184 232.982 160.84C233.33 160.492 233.878 160.322 234.626 160.33H235.61C236.358 160.33 236.904 160.504 237.248 160.852C237.596 161.196 237.77 161.742 237.77 162.49V163.834C237.77 164.582 237.596 165.13 237.248 165.478C236.904 165.826 236.358 166 235.61 166H234.626ZM233.09 163.846C233.09 164.41 233.202 164.806 233.426 165.034C233.654 165.258 234.054 165.37 234.626 165.37H235.61C236.182 165.37 236.58 165.258 236.804 165.034C237.028 164.806 237.14 164.406 237.14 163.834V162.49C237.14 161.918 237.028 161.52 236.804 161.296C236.58 161.072 236.182 160.96 235.61 160.96H234.626C234.242 160.956 233.938 161.002 233.714 161.098C233.49 161.194 233.33 161.354 233.234 161.578C233.138 161.802 233.09 162.106 233.09 162.49V163.846ZM240.17 166C239.958 166 239.852 165.894 239.852 165.682V160.642C239.852 160.434 239.958 160.33 240.17 160.33C240.378 160.33 240.482 160.434 240.482 160.642V161.218C240.862 160.626 241.55 160.33 242.546 160.33H242.882C243.63 160.33 244.176 160.504 244.52 160.852C244.868 161.196 245.042 161.742 245.042 162.49V165.682C245.042 165.894 244.938 166 244.73 166C244.518 166 244.412 165.894 244.412 165.682V162.49C244.412 161.918 244.298 161.52 244.07 161.296C243.846 161.072 243.45 160.96 242.882 160.96H242.546C241.926 160.96 241.438 161.058 241.082 161.254C240.726 161.45 240.526 161.756 240.482 162.172V165.682C240.482 165.894 240.378 166 240.17 166ZM249.181 166C248.433 166 247.885 165.826 247.537 165.478C247.189 165.13 247.015 164.582 247.015 163.834V162.49C247.015 161.742 247.189 161.196 247.537 160.852C247.885 160.504 248.433 160.33 249.181 160.33H251.695V157.99C251.695 157.782 251.801 157.678 252.013 157.678C252.221 157.678 252.325 157.782 252.325 157.99V165.682C252.325 165.894 252.221 166 252.013 166C251.801 166 251.695 165.894 251.695 165.682V165.166C251.523 165.442 251.271 165.65 250.939 165.79C250.607 165.93 250.173 166 249.637 166H249.181ZM249.181 165.37H249.637C250.261 165.37 250.759 165.272 251.131 165.076C251.507 164.876 251.695 164.578 251.695 164.182V160.96H249.181C248.609 160.96 248.209 161.074 247.981 161.302C247.757 161.526 247.645 161.922 247.645 162.49V163.834C247.645 164.406 247.757 164.806 247.981 165.034C248.209 165.258 248.609 165.37 249.181 165.37ZM259.23 160.33C259.442 160.33 259.548 160.434 259.548 160.642V165.682C259.548 165.894 259.442 166 259.23 166C259.022 166 258.918 165.894 258.918 165.682V165.112C258.538 165.704 257.85 166 256.854 166H256.518C255.77 166 255.222 165.826 254.874 165.478C254.53 165.13 254.358 164.582 254.358 163.834V160.642C254.358 160.434 254.462 160.33 254.67 160.33C254.882 160.33 254.988 160.434 254.988 160.642V163.834C254.988 164.406 255.1 164.806 255.324 165.034C255.552 165.258 255.95 165.37 256.518 165.37H256.854C257.474 165.37 257.962 165.27 258.318 165.07C258.674 164.87 258.874 164.564 258.918 164.152V160.642C258.918 160.434 259.022 160.33 259.23 160.33ZM263.794 166C263.046 166 262.498 165.826 262.15 165.478C261.802 165.13 261.628 164.582 261.628 163.834V162.478C261.628 161.73 261.8 161.184 262.144 160.84C262.492 160.492 263.042 160.322 263.794 160.33H264.778C265.366 160.33 265.814 160.43 266.122 160.63C266.434 160.826 266.62 161.136 266.68 161.56C266.692 161.668 266.668 161.75 266.608 161.806C266.552 161.862 266.472 161.89 266.368 161.89C266.272 161.89 266.2 161.866 266.152 161.818C266.104 161.766 266.068 161.692 266.044 161.596C266 161.364 265.882 161.2 265.69 161.104C265.498 161.008 265.194 160.96 264.778 160.96H263.794C263.222 160.952 262.822 161.06 262.594 161.284C262.37 161.504 262.258 161.902 262.258 162.478V163.834C262.258 164.406 262.37 164.806 262.594 165.034C262.822 165.258 263.222 165.37 263.794 165.37H264.778C265.194 165.37 265.498 165.322 265.69 165.226C265.882 165.13 266 164.964 266.044 164.728C266.068 164.632 266.104 164.56 266.152 164.512C266.2 164.46 266.272 164.434 266.368 164.434C266.472 164.434 266.552 164.464 266.608 164.524C266.668 164.58 266.692 164.66 266.68 164.764C266.62 165.188 266.434 165.5 266.122 165.7C265.814 165.9 265.366 166 264.778 166H263.794ZM270.961 166C270.225 166 269.687 165.83 269.347 165.49C269.007 165.15 268.837 164.614 268.837 163.882V160.96H268.123C267.911 160.96 267.805 160.854 267.805 160.642C267.805 160.434 267.911 160.33 268.123 160.33H268.837V159.04C268.837 158.828 268.941 158.722 269.149 158.722C269.361 158.722 269.467 158.828 269.467 159.04V160.33H270.973C271.181 160.33 271.285 160.434 271.285 160.642C271.285 160.854 271.181 160.96 270.973 160.96H269.467V163.882C269.467 164.442 269.575 164.83 269.791 165.046C270.011 165.262 270.401 165.37 270.961 165.37C271.077 165.37 271.159 165.396 271.207 165.448C271.259 165.5 271.285 165.578 271.285 165.682C271.285 165.894 271.177 166 270.961 166ZM274.47 166C273.722 166 273.174 165.828 272.826 165.484C272.478 165.136 272.304 164.59 272.304 163.846V162.49C272.304 161.734 272.478 161.184 272.826 160.84C273.174 160.492 273.722 160.322 274.47 160.33H275.454C276.202 160.33 276.748 160.504 277.092 160.852C277.44 161.196 277.614 161.742 277.614 162.49V163.834C277.614 164.582 277.44 165.13 277.092 165.478C276.748 165.826 276.202 166 275.454 166H274.47ZM272.934 163.846C272.934 164.41 273.046 164.806 273.27 165.034C273.498 165.258 273.898 165.37 274.47 165.37H275.454C276.026 165.37 276.424 165.258 276.648 165.034C276.872 164.806 276.984 164.406 276.984 163.834V162.49C276.984 161.918 276.872 161.52 276.648 161.296C276.424 161.072 276.026 160.96 275.454 160.96H274.47C274.086 160.956 273.782 161.002 273.558 161.098C273.334 161.194 273.174 161.354 273.078 161.578C272.982 161.802 272.934 162.106 272.934 162.49V163.846ZM280.014 166C279.802 166 279.696 165.894 279.696 165.682V160.642C279.696 160.434 279.802 160.33 280.014 160.33C280.222 160.33 280.326 160.434 280.326 160.642V161.566C280.534 161.166 280.834 160.86 281.226 160.648C281.622 160.436 282.09 160.33 282.63 160.33C282.842 160.33 282.948 160.434 282.948 160.642C282.948 160.854 282.842 160.96 282.63 160.96C281.918 160.96 281.366 161.122 280.974 161.446C280.582 161.766 280.366 162.224 280.326 162.82V165.682C280.326 165.894 280.222 166 280.014 166ZM289.217 165.988C288.501 165.988 287.969 165.83 287.621 165.514C287.277 165.194 287.093 164.692 287.069 164.008C287.065 163.912 287.091 163.836 287.147 163.78C287.207 163.72 287.285 163.69 287.381 163.69C287.477 163.69 287.553 163.718 287.609 163.774C287.665 163.83 287.697 163.906 287.705 164.002C287.721 164.506 287.841 164.858 288.065 165.058C288.289 165.258 288.673 165.358 289.217 165.358H290.945C291.513 165.358 291.907 165.248 292.127 165.028C292.351 164.804 292.463 164.412 292.463 163.852C292.463 163.284 292.351 162.89 292.127 162.67C291.907 162.446 291.513 162.334 290.945 162.334H289.301C288.597 162.334 288.081 162.17 287.753 161.842C287.425 161.514 287.261 161 287.261 160.3C287.261 159.6 287.423 159.086 287.747 158.758C288.075 158.43 288.589 158.266 289.289 158.266H290.969C291.641 158.266 292.139 158.416 292.463 158.716C292.791 159.016 292.967 159.488 292.991 160.132C292.999 160.228 292.973 160.306 292.913 160.366C292.857 160.422 292.779 160.45 292.679 160.45C292.587 160.45 292.513 160.422 292.457 160.366C292.401 160.31 292.369 160.234 292.361 160.138C292.345 159.678 292.233 159.356 292.025 159.172C291.817 158.988 291.465 158.896 290.969 158.896H289.289C288.765 158.896 288.401 159 288.197 159.208C287.993 159.412 287.891 159.776 287.891 160.3C287.891 160.824 287.993 161.19 288.197 161.398C288.405 161.602 288.773 161.704 289.301 161.704H290.945C291.689 161.704 292.233 161.878 292.577 162.226C292.921 162.57 293.093 163.112 293.093 163.852C293.093 164.592 292.921 165.134 292.577 165.478C292.233 165.818 291.689 165.988 290.945 165.988H289.217ZM297.181 166C296.433 166 295.885 165.828 295.537 165.484C295.189 165.136 295.015 164.59 295.015 163.846V162.49C295.015 161.734 295.189 161.184 295.537 160.84C295.885 160.492 296.433 160.322 297.181 160.33H298.165C298.913 160.33 299.459 160.504 299.803 160.852C300.151 161.196 300.325 161.742 300.325 162.49V163.834C300.325 164.582 300.151 165.13 299.803 165.478C299.459 165.826 298.913 166 298.165 166H297.181ZM295.645 163.846C295.645 164.41 295.757 164.806 295.981 165.034C296.209 165.258 296.609 165.37 297.181 165.37H298.165C298.737 165.37 299.135 165.258 299.359 165.034C299.583 164.806 299.695 164.406 299.695 163.834V162.49C299.695 161.918 299.583 161.52 299.359 161.296C299.135 161.072 298.737 160.96 298.165 160.96H297.181C296.797 160.956 296.493 161.002 296.269 161.098C296.045 161.194 295.885 161.354 295.789 161.578C295.693 161.802 295.645 162.106 295.645 162.49V163.846ZM304.057 166C303.489 166 303.071 165.868 302.803 165.604C302.539 165.34 302.407 164.926 302.407 164.362V157.99C302.407 157.782 302.513 157.678 302.725 157.678C302.933 157.678 303.037 157.782 303.037 157.99V164.362C303.037 164.75 303.109 165.016 303.253 165.16C303.397 165.3 303.663 165.37 304.051 165.37C304.267 165.37 304.375 165.474 304.375 165.682C304.379 165.894 304.273 166 304.057 166ZM307.351 166C306.727 166 306.269 165.856 305.977 165.568C305.689 165.276 305.545 164.818 305.545 164.194C305.545 163.57 305.691 163.112 305.983 162.82C306.275 162.528 306.731 162.382 307.351 162.382H310.081C310.073 161.854 309.953 161.486 309.721 161.278C309.493 161.066 309.103 160.96 308.551 160.96H307.855C307.347 160.96 306.975 161.014 306.739 161.122C306.503 161.23 306.357 161.414 306.301 161.674C306.273 161.774 306.235 161.848 306.187 161.896C306.143 161.94 306.071 161.962 305.971 161.962C305.867 161.962 305.785 161.934 305.725 161.878C305.669 161.818 305.649 161.738 305.665 161.638C305.717 161.182 305.923 160.85 306.283 160.642C306.647 160.434 307.171 160.33 307.855 160.33H308.551C309.299 160.33 309.845 160.504 310.189 160.852C310.537 161.196 310.711 161.742 310.711 162.49V165.682C310.711 165.894 310.607 166 310.399 166C310.187 166 310.081 165.894 310.081 165.682V165.088C309.697 165.696 309.011 166 308.023 166H307.351ZM307.351 165.37H308.023C308.411 165.37 308.751 165.328 309.043 165.244C309.339 165.156 309.577 165.016 309.757 164.824C309.937 164.632 310.045 164.376 310.081 164.056V163.012H307.351C306.907 163.012 306.599 163.098 306.427 163.27C306.259 163.438 306.175 163.746 306.175 164.194C306.175 164.638 306.259 164.946 306.427 165.118C306.599 165.286 306.907 165.37 307.351 165.37ZM313.167 166C312.955 166 312.849 165.894 312.849 165.682V160.642C312.849 160.434 312.955 160.33 313.167 160.33C313.375 160.33 313.479 160.434 313.479 160.642V161.566C313.687 161.166 313.987 160.86 314.379 160.648C314.775 160.436 315.243 160.33 315.783 160.33C315.995 160.33 316.101 160.434 316.101 160.642C316.101 160.854 315.995 160.96 315.783 160.96C315.071 160.96 314.519 161.122 314.127 161.446C313.735 161.766 313.519 162.224 313.479 162.82V165.682C313.479 165.894 313.375 166 313.167 166Z" fill="currentColor"/>
  <line x1="341.5" y1="101" x2="341.5" y2="130" stroke="currentColor"/>
  <circle class="icon-fg" cx="341.5" cy="130.5" r="4" transform="rotate(-180 341.5 130.5)" fill="currentColor"/>
  <circle cx="341.5" cy="130.5" r="1.5" transform="rotate(-180 341.5 130.5)" fill="currentColor"/>

  <path d="M278 94C278 97.866 281.134 101 285 101L402 101C405.866 101 409 97.866 409 94" stroke="currentColor"/>
  <path class="icon-fg" d="M4 8C4 3.58172 7.58172 0 12 0H191C195.418 0 199 3.58172 199 8V37C199 41.4183 195.418 45 191 45H12C7.58172 45 4 41.4183 4 37V8Z" fill="currentColor"/>
  <path d="M12 0.5H191C195.142 0.5 198.5 3.85786 198.5 8V37C198.5 41.1421 195.142 44.5 191 44.5H12C7.85786 44.5 4.5 41.1421 4.5 37V8C4.5 3.85786 7.85786 0.5 12 0.5Z" stroke="currentColor"/>
  <path d="M16.968 20C16.1093 20 15.47 19.8203 15.05 19.461C14.6347 19.1017 14.4013 18.53 14.35 17.746C14.3407 17.6247 14.3663 17.5313 14.427 17.466C14.4877 17.396 14.581 17.361 14.707 17.361C14.9403 17.361 15.0663 17.4847 15.085 17.732C15.1223 18.3107 15.281 18.712 15.561 18.936C15.8457 19.1553 16.3147 19.265 16.968 19.265H17.542C18.0227 19.265 18.4007 19.2067 18.676 19.09C18.9513 18.9733 19.1473 18.7773 19.264 18.502C19.3853 18.222 19.446 17.8417 19.446 17.361V11.348C19.446 11.1007 19.5673 10.977 19.81 10.977C20.0573 10.977 20.181 11.1007 20.181 11.348V17.361C20.181 18.285 19.971 18.957 19.551 19.377C19.1357 19.7923 18.466 20 17.542 20H16.968ZM28.2908 13.385C28.5382 13.385 28.6618 13.5063 28.6618 13.749V19.629C28.6618 19.8763 28.5382 20 28.2908 20C28.0482 20 27.9268 19.8763 27.9268 19.629V18.964C27.4835 19.6547 26.6808 20 25.5188 20H25.1268C24.2542 20 23.6148 19.797 23.2088 19.391C22.8075 18.985 22.6068 18.3457 22.6068 17.473V13.749C22.6068 13.5063 22.7282 13.385 22.9708 13.385C23.2182 13.385 23.3418 13.5063 23.3418 13.749V17.473C23.3418 18.1403 23.4725 18.607 23.7338 18.873C23.9998 19.1343 24.4642 19.265 25.1268 19.265H25.5188C26.2422 19.265 26.8115 19.1483 27.2268 18.915C27.6422 18.6817 27.8755 18.3247 27.9268 17.844V13.749C27.9268 13.5063 28.0482 13.385 28.2908 13.385ZM31.6488 20C31.4014 20 31.2778 19.8763 31.2778 19.629V13.749C31.2778 13.5063 31.4014 13.385 31.6488 13.385C31.8914 13.385 32.0128 13.5063 32.0128 13.749V14.421C32.4561 13.7303 33.2588 13.385 34.4208 13.385H34.8128C35.6854 13.385 36.3224 13.588 36.7238 13.994C37.1298 14.3953 37.3328 15.0323 37.3328 15.905V19.629C37.3328 19.8763 37.2114 20 36.9688 20C36.7214 20 36.5978 19.8763 36.5978 19.629V15.905C36.5978 15.2377 36.4648 14.7733 36.1988 14.512C35.9374 14.2507 35.4754 14.12 34.8128 14.12H34.4208C33.6974 14.12 33.1281 14.2343 32.7128 14.463C32.2974 14.6917 32.0641 15.0487 32.0128 15.534V19.629C32.0128 19.8763 31.8914 20 31.6488 20ZM40.0327 12.111C39.7107 12.111 39.5497 11.9453 39.5497 11.614V11.299C39.5497 10.977 39.7107 10.816 40.0327 10.816H40.3477C40.6603 10.816 40.8167 10.977 40.8167 11.299V11.614C40.8167 11.9453 40.6603 12.111 40.3477 12.111H40.0327ZM40.1937 20C39.9463 20 39.8227 19.8763 39.8227 19.629V13.749C39.8227 13.5063 39.9463 13.385 40.1937 13.385C40.4363 13.385 40.5577 13.5063 40.5577 13.749V19.629C40.5577 19.8763 40.4363 20 40.1937 20ZM45.5103 20C44.6376 20 43.9983 19.7993 43.5923 19.398C43.1863 18.992 42.9833 18.355 42.9833 17.487V15.905C42.9833 15.023 43.1863 14.3813 43.5923 13.98C43.9983 13.574 44.6376 13.3757 45.5103 13.385H46.6583C47.5309 13.385 48.1679 13.588 48.5693 13.994C48.9753 14.3953 49.1783 15.0323 49.1783 15.905V17.473C49.1783 18.3457 48.9753 18.985 48.5693 19.391C48.1679 19.797 47.5309 20 46.6583 20H45.5103ZM43.7183 17.487C43.7183 18.145 43.8489 18.607 44.1103 18.873C44.3763 19.1343 44.8429 19.265 45.5103 19.265H46.6583C47.3256 19.265 47.7899 19.1343 48.0513 18.873C48.3126 18.607 48.4433 18.1403 48.4433 17.473V15.905C48.4433 15.2377 48.3126 14.7733 48.0513 14.512C47.7899 14.2507 47.3256 14.12 46.6583 14.12H45.5103C45.0623 14.1153 44.7076 14.169 44.4463 14.281C44.1849 14.393 43.9983 14.5797 43.8863 14.841C43.7743 15.1023 43.7183 15.457 43.7183 15.905V17.487ZM51.9788 20C51.7315 20 51.6078 19.8763 51.6078 19.629V13.749C51.6078 13.5063 51.7315 13.385 51.9788 13.385C52.2215 13.385 52.3428 13.5063 52.3428 13.749V14.827C52.5855 14.3603 52.9355 14.0033 53.3928 13.756C53.8548 13.5087 54.4008 13.385 55.0308 13.385C55.2782 13.385 55.4018 13.5063 55.4018 13.749C55.4018 13.9963 55.2782 14.12 55.0308 14.12C54.2002 14.12 53.5562 14.309 53.0988 14.687C52.6415 15.0603 52.3895 15.5947 52.3428 16.29V19.629C52.3428 19.8763 52.2215 20 51.9788 20ZM62.7158 19.986C61.8805 19.986 61.2598 19.8017 60.8538 19.433C60.4525 19.0597 60.2378 18.474 60.2098 17.676C60.2052 17.564 60.2355 17.4753 60.3008 17.41C60.3708 17.34 60.4618 17.305 60.5738 17.305C60.6858 17.305 60.7745 17.3377 60.8398 17.403C60.9052 17.4683 60.9425 17.557 60.9518 17.669C60.9705 18.257 61.1105 18.6677 61.3718 18.901C61.6332 19.1343 62.0812 19.251 62.7158 19.251H64.7318C65.3945 19.251 65.8542 19.1227 66.1108 18.866C66.3722 18.6047 66.5028 18.1473 66.5028 17.494C66.5028 16.8313 66.3722 16.3717 66.1108 16.115C65.8542 15.8537 65.3945 15.723 64.7318 15.723H62.8138C61.9925 15.723 61.3905 15.5317 61.0078 15.149C60.6252 14.7663 60.4338 14.1667 60.4338 13.35C60.4338 12.5333 60.6228 11.9337 61.0008 11.551C61.3835 11.1683 61.9832 10.977 62.7998 10.977H64.7598C65.5438 10.977 66.1248 11.152 66.5028 11.502C66.8855 11.852 67.0908 12.4027 67.1188 13.154C67.1282 13.266 67.0978 13.357 67.0278 13.427C66.9625 13.4923 66.8715 13.525 66.7548 13.525C66.6475 13.525 66.5612 13.4923 66.4958 13.427C66.4305 13.3617 66.3932 13.273 66.3838 13.161C66.3652 12.6243 66.2345 12.2487 65.9918 12.034C65.7492 11.8193 65.3385 11.712 64.7598 11.712H62.7998C62.1885 11.712 61.7638 11.8333 61.5258 12.076C61.2878 12.314 61.1688 12.7387 61.1688 13.35C61.1688 13.9613 61.2878 14.3883 61.5258 14.631C61.7685 14.869 62.1978 14.988 62.8138 14.988H64.7318C65.5998 14.988 66.2345 15.191 66.6358 15.597C67.0372 15.9983 67.2378 16.6307 67.2378 17.494C67.2378 18.3573 67.0372 18.9897 66.6358 19.391C66.2345 19.7877 65.5998 19.986 64.7318 19.986H62.7158ZM72.0064 20C71.1337 20 70.4944 19.7993 70.0884 19.398C69.6824 18.992 69.4794 18.355 69.4794 17.487V15.905C69.4794 15.023 69.6824 14.3813 70.0884 13.98C70.4944 13.574 71.1337 13.3757 72.0064 13.385H73.1544C74.027 13.385 74.664 13.588 75.0654 13.994C75.4714 14.3953 75.6744 15.0323 75.6744 15.905V17.473C75.6744 18.3457 75.4714 18.985 75.0654 19.391C74.664 19.797 74.027 20 73.1544 20H72.0064ZM70.2144 17.487C70.2144 18.145 70.345 18.607 70.6064 18.873C70.8724 19.1343 71.339 19.265 72.0064 19.265H73.1544C73.8217 19.265 74.286 19.1343 74.5474 18.873C74.8087 18.607 74.9394 18.1403 74.9394 17.473V15.905C74.9394 15.2377 74.8087 14.7733 74.5474 14.512C74.286 14.2507 73.8217 14.12 73.1544 14.12H72.0064C71.5584 14.1153 71.2037 14.169 70.9424 14.281C70.681 14.393 70.4944 14.5797 70.3824 14.841C70.2704 15.1023 70.2144 15.457 70.2144 15.905V17.487ZM78.5939 20C78.3466 20 78.2229 19.8763 78.2229 19.629V14.12H77.6349C77.3876 14.12 77.2639 13.9963 77.2639 13.749C77.2639 13.5063 77.3876 13.385 77.6349 13.385H78.2229V12.769C78.2229 11.9103 78.4213 11.2827 78.8179 10.886C79.2193 10.4893 79.8493 10.291 80.7079 10.291C80.9459 10.291 81.0649 10.4123 81.0649 10.655C81.0649 10.9023 80.9459 11.026 80.7079 11.026C80.0546 11.026 79.5996 11.1543 79.3429 11.411C79.0863 11.663 78.9579 12.1157 78.9579 12.769V13.385H80.6939C80.9413 13.385 81.0649 13.5063 81.0649 13.749C81.0649 13.9963 80.9413 14.12 80.6939 14.12H78.9579V19.629C78.9579 19.8763 78.8366 20 78.5939 20ZM85.3997 20C84.541 20 83.9133 19.8017 83.5167 19.405C83.12 19.0083 82.9217 18.383 82.9217 17.529V14.12H82.0887C81.8413 14.12 81.7177 13.9963 81.7177 13.749C81.7177 13.5063 81.8413 13.385 82.0887 13.385H82.9217V11.88C82.9217 11.6327 83.043 11.509 83.2857 11.509C83.533 11.509 83.6567 11.6327 83.6567 11.88V13.385H85.4137C85.6563 13.385 85.7777 13.5063 85.7777 13.749C85.7777 13.9963 85.6563 14.12 85.4137 14.12H83.6567V17.529C83.6567 18.1823 83.7827 18.635 84.0347 18.887C84.2913 19.139 84.7463 19.265 85.3997 19.265C85.535 19.265 85.6307 19.2953 85.6867 19.356C85.7473 19.4167 85.7777 19.5077 85.7777 19.629C85.7777 19.8763 85.6517 20 85.3997 20ZM89.1643 20C88.9449 20 88.8026 19.8997 88.7373 19.699L86.7633 13.882C86.6839 13.644 86.7609 13.4877 86.9943 13.413C87.2229 13.343 87.3746 13.42 87.4493 13.644L89.3673 19.265H89.0733L90.9073 13.749C90.9726 13.553 91.1126 13.455 91.3273 13.455C91.5326 13.455 91.6656 13.5553 91.7263 13.756L93.4412 19.251H93.1333L95.1493 13.644C95.2426 13.406 95.4013 13.329 95.6253 13.413C95.8586 13.5017 95.9333 13.6603 95.8493 13.889L93.6863 19.699C93.6116 19.8997 93.4669 20 93.2523 20C93.0143 20 92.8649 19.8997 92.8043 19.699L91.2153 14.61H91.3553L89.6053 19.699C89.5679 19.8157 89.5096 19.895 89.4303 19.937C89.3509 19.979 89.2623 20 89.1643 20ZM99.3483 20C98.6203 20 98.0859 19.832 97.7453 19.496C97.4093 19.1553 97.2413 18.621 97.2413 17.893C97.2413 17.165 97.4116 16.6307 97.7523 16.29C98.0929 15.9493 98.6249 15.779 99.3483 15.779H102.533C102.524 15.163 102.384 14.7337 102.113 14.491C101.847 14.2437 101.392 14.12 100.748 14.12H99.9363C99.3436 14.12 98.9096 14.183 98.6343 14.309C98.3589 14.435 98.1886 14.6497 98.1233 14.953C98.0906 15.0697 98.0463 15.156 97.9903 15.212C97.9389 15.2633 97.8549 15.289 97.7383 15.289C97.6169 15.289 97.5213 15.2563 97.4513 15.191C97.3859 15.121 97.3626 15.0277 97.3813 14.911C97.4419 14.379 97.6823 13.9917 98.1023 13.749C98.5269 13.5063 99.1383 13.385 99.9363 13.385H100.748C101.621 13.385 102.258 13.588 102.659 13.994C103.065 14.3953 103.268 15.0323 103.268 15.905V19.629C103.268 19.8763 103.147 20 102.904 20C102.657 20 102.533 19.8763 102.533 19.629V18.936C102.085 19.6453 101.285 20 100.132 20H99.3483ZM99.3483 19.265H100.132C100.585 19.265 100.982 19.216 101.322 19.118C101.668 19.0153 101.945 18.852 102.155 18.628C102.365 18.404 102.491 18.1053 102.533 17.732V16.514H99.3483C98.8303 16.514 98.4709 16.6143 98.2703 16.815C98.0743 17.011 97.9763 17.3703 97.9763 17.893C97.9763 18.411 98.0743 18.7703 98.2703 18.971C98.4709 19.167 98.8303 19.265 99.3483 19.265ZM106.133 20C105.886 20 105.762 19.8763 105.762 19.629V13.749C105.762 13.5063 105.886 13.385 106.133 13.385C106.376 13.385 106.497 13.5063 106.497 13.749V14.827C106.74 14.3603 107.09 14.0033 107.547 13.756C108.009 13.5087 108.555 13.385 109.185 13.385C109.432 13.385 109.556 13.5063 109.556 13.749C109.556 13.9963 109.432 14.12 109.185 14.12C108.354 14.12 107.71 14.309 107.253 14.687C106.796 15.0603 106.544 15.5947 106.497 16.29V19.629C106.497 19.8763 106.376 20 106.133 20ZM111.312 16.976V17.487C111.312 18.145 111.443 18.607 111.704 18.873C111.97 19.1343 112.437 19.265 113.104 19.265H114.252C114.84 19.265 115.267 19.1903 115.533 19.041C115.804 18.887 115.965 18.6233 116.016 18.25C116.035 18.1333 116.072 18.0447 116.128 17.984C116.189 17.9233 116.28 17.893 116.401 17.893C116.522 17.893 116.613 17.928 116.674 17.998C116.739 18.0633 116.765 18.1567 116.751 18.278C116.69 18.866 116.455 19.3 116.044 19.58C115.633 19.86 115.036 20 114.252 20H113.104C112.231 20 111.592 19.7993 111.186 19.398C110.78 18.992 110.577 18.355 110.577 17.487V15.905C110.577 15.023 110.78 14.3813 111.186 13.98C111.592 13.574 112.231 13.3757 113.104 13.385H114.252C115.125 13.385 115.762 13.588 116.163 13.994C116.569 14.3953 116.772 15.0323 116.772 15.905V16.605C116.772 16.8523 116.651 16.976 116.408 16.976H111.312ZM113.104 14.12C112.437 14.1107 111.97 14.239 111.704 14.505C111.443 14.7663 111.312 15.233 111.312 15.905V16.241H116.037V15.905C116.037 15.2377 115.906 14.7733 115.645 14.512C115.384 14.2507 114.919 14.12 114.252 14.12H113.104ZM123.086 20C122.839 20 122.715 19.8763 122.715 19.629V11.348C122.715 11.1007 122.839 10.977 123.086 10.977H126.46C127.622 10.977 128.467 11.243 128.994 11.775C129.526 12.307 129.792 13.154 129.792 14.316V16.661C129.792 17.823 129.526 18.67 128.994 19.202C128.467 19.734 127.622 20 126.46 20H123.086ZM123.45 19.265H126.46C127.095 19.265 127.601 19.181 127.979 19.013C128.362 18.845 128.637 18.572 128.805 18.194C128.973 17.8113 129.057 17.3003 129.057 16.661V14.316C129.057 13.6813 128.973 13.175 128.805 12.797C128.637 12.4143 128.362 12.139 127.979 11.971C127.601 11.7983 127.095 11.712 126.46 11.712H123.45V19.265ZM132.763 16.976V17.487C132.763 18.145 132.894 18.607 133.155 18.873C133.421 19.1343 133.888 19.265 134.555 19.265H135.703C136.291 19.265 136.718 19.1903 136.984 19.041C137.255 18.887 137.416 18.6233 137.467 18.25C137.486 18.1333 137.523 18.0447 137.579 17.984C137.64 17.9233 137.731 17.893 137.852 17.893C137.974 17.893 138.065 17.928 138.125 17.998C138.191 18.0633 138.216 18.1567 138.202 18.278C138.142 18.866 137.906 19.3 137.495 19.58C137.085 19.86 136.487 20 135.703 20H134.555C133.683 20 133.043 19.7993 132.637 19.398C132.231 18.992 132.028 18.355 132.028 17.487V15.905C132.028 15.023 132.231 14.3813 132.637 13.98C133.043 13.574 133.683 13.3757 134.555 13.385H135.703C136.576 13.385 137.213 13.588 137.614 13.994C138.02 14.3953 138.223 15.0323 138.223 15.905V16.605C138.223 16.8523 138.102 16.976 137.859 16.976H132.763ZM134.555 14.12C133.888 14.1107 133.421 14.239 133.155 14.505C132.894 14.7663 132.763 15.233 132.763 15.905V16.241H137.488V15.905C137.488 15.2377 137.358 14.7733 137.096 14.512C136.835 14.2507 136.371 14.12 135.703 14.12H134.555ZM142.92 19.72C142.869 19.832 142.806 19.9067 142.731 19.944C142.657 19.9813 142.57 20 142.472 20C142.267 20 142.122 19.9043 142.038 19.713L139.441 13.896C139.343 13.6673 139.411 13.5087 139.644 13.42C139.864 13.3267 140.022 13.392 140.12 13.616L142.71 19.412H142.262L145.02 13.609C145.072 13.5017 145.139 13.4317 145.223 13.399C145.307 13.3663 145.403 13.3733 145.51 13.42C145.739 13.5227 145.802 13.686 145.699 13.91L142.92 19.72ZM147.666 16.976V17.487C147.666 18.145 147.796 18.607 148.058 18.873C148.324 19.1343 148.79 19.265 149.458 19.265H150.606C151.194 19.265 151.621 19.1903 151.887 19.041C152.157 18.887 152.318 18.6233 152.37 18.25C152.388 18.1333 152.426 18.0447 152.482 17.984C152.542 17.9233 152.633 17.893 152.755 17.893C152.876 17.893 152.967 17.928 153.028 17.998C153.093 18.0633 153.119 18.1567 153.105 18.278C153.044 18.866 152.808 19.3 152.398 19.58C151.987 19.86 151.39 20 150.606 20H149.458C148.585 20 147.946 19.7993 147.54 19.398C147.134 18.992 146.931 18.355 146.931 17.487V15.905C146.931 15.023 147.134 14.3813 147.54 13.98C147.946 13.574 148.585 13.3757 149.458 13.385H150.606C151.478 13.385 152.115 13.588 152.517 13.994C152.923 14.3953 153.126 15.0323 153.126 15.905V16.605C153.126 16.8523 153.004 16.976 152.762 16.976H147.666ZM149.458 14.12C148.79 14.1107 148.324 14.239 148.058 14.505C147.796 14.7663 147.666 15.233 147.666 15.905V16.241H152.391V15.905C152.391 15.2377 152.26 14.7733 151.999 14.512C151.737 14.2507 151.273 14.12 150.606 14.12H149.458ZM157.48 20C156.817 20 156.33 19.846 156.017 19.538C155.709 19.23 155.555 18.747 155.555 18.089V10.655C155.555 10.4123 155.679 10.291 155.926 10.291C156.169 10.291 156.29 10.4123 156.29 10.655V18.089C156.29 18.5417 156.374 18.852 156.542 19.02C156.71 19.1833 157.02 19.265 157.473 19.265C157.725 19.265 157.851 19.3863 157.851 19.629C157.856 19.8763 157.732 20 157.48 20ZM161.694 20C160.821 20 160.182 19.7993 159.776 19.398C159.37 18.992 159.167 18.355 159.167 17.487V15.905C159.167 15.023 159.37 14.3813 159.776 13.98C160.182 13.574 160.821 13.3757 161.694 13.385H162.842C163.715 13.385 164.352 13.588 164.753 13.994C165.159 14.3953 165.362 15.0323 165.362 15.905V17.473C165.362 18.3457 165.159 18.985 164.753 19.391C164.352 19.797 163.715 20 162.842 20H161.694ZM159.902 17.487C159.902 18.145 160.033 18.607 160.294 18.873C160.56 19.1343 161.027 19.265 161.694 19.265H162.842C163.509 19.265 163.974 19.1343 164.235 18.873C164.496 18.607 164.627 18.1403 164.627 17.473V15.905C164.627 15.2377 164.496 14.7733 164.235 14.512C163.974 14.2507 163.509 14.12 162.842 14.12H161.694C161.246 14.1153 160.891 14.169 160.63 14.281C160.369 14.393 160.182 14.5797 160.07 14.841C159.958 15.1023 159.902 15.457 159.902 15.905V17.487ZM168.162 22.8C167.915 22.8 167.791 22.6763 167.791 22.429V13.749C167.791 13.5063 167.915 13.385 168.162 13.385C168.405 13.385 168.526 13.5063 168.526 13.749V14.372C168.736 14.0453 169.037 13.8003 169.429 13.637C169.821 13.469 170.323 13.385 170.934 13.385H171.466C172.339 13.385 172.976 13.588 173.377 13.994C173.783 14.3953 173.986 15.0323 173.986 15.905V17.473C173.986 18.3457 173.783 18.985 173.377 19.391C172.976 19.797 172.339 20 171.466 20H168.526V22.429C168.526 22.6763 168.405 22.8 168.162 22.8ZM168.526 19.265H171.466C172.134 19.265 172.598 19.1343 172.859 18.873C173.121 18.607 173.251 18.1403 173.251 17.473V15.905C173.251 15.2377 173.121 14.7733 172.859 14.512C172.598 14.2507 172.134 14.12 171.466 14.12H170.934C170.188 14.12 169.614 14.2367 169.212 14.47C168.816 14.7033 168.587 15.0627 168.526 15.548V19.265ZM176.964 16.976V17.487C176.964 18.145 177.095 18.607 177.356 18.873C177.622 19.1343 178.089 19.265 178.756 19.265H179.904C180.492 19.265 180.919 19.1903 181.185 19.041C181.456 18.887 181.617 18.6233 181.668 18.25C181.687 18.1333 181.724 18.0447 181.78 17.984C181.841 17.9233 181.932 17.893 182.053 17.893C182.175 17.893 182.266 17.928 182.326 17.998C182.392 18.0633 182.417 18.1567 182.403 18.278C182.343 18.866 182.107 19.3 181.696 19.58C181.286 19.86 180.688 20 179.904 20H178.756C177.884 20 177.244 19.7993 176.838 19.398C176.432 18.992 176.229 18.355 176.229 17.487V15.905C176.229 15.023 176.432 14.3813 176.838 13.98C177.244 13.574 177.884 13.3757 178.756 13.385H179.904C180.777 13.385 181.414 13.588 181.815 13.994C182.221 14.3953 182.424 15.0323 182.424 15.905V16.605C182.424 16.8523 182.303 16.976 182.06 16.976H176.964ZM178.756 14.12C178.089 14.1107 177.622 14.239 177.356 14.505C177.095 14.7663 176.964 15.233 176.964 15.905V16.241H181.689V15.905C181.689 15.2377 181.559 14.7733 181.297 14.512C181.036 14.2507 180.572 14.12 179.904 14.12H178.756ZM185.225 20C184.978 20 184.854 19.8763 184.854 19.629V13.749C184.854 13.5063 184.978 13.385 185.225 13.385C185.468 13.385 185.589 13.5063 185.589 13.749V14.827C185.832 14.3603 186.182 14.0033 186.639 13.756C187.101 13.5087 187.647 13.385 188.277 13.385C188.524 13.385 188.648 13.5063 188.648 13.749C188.648 13.9963 188.524 14.12 188.277 14.12C187.446 14.12 186.802 14.309 186.345 14.687C185.888 15.0603 185.636 15.5947 185.589 16.29V19.629C185.589 19.8763 185.468 20 185.225 20ZM15.44 35C15.34 35 15.262 34.972 15.206 34.916C15.15 34.86 15.122 34.782 15.122 34.682V27.578C15.122 27.478 15.15 27.4 15.206 27.344C15.262 27.288 15.34 27.26 15.44 27.26C15.536 27.26 15.612 27.288 15.668 27.344C15.724 27.4 15.752 27.478 15.752 27.578V34.682C15.752 34.782 15.724 34.86 15.668 34.916C15.612 34.972 15.536 35 15.44 35ZM18.3111 35C18.0991 35 17.9931 34.894 17.9931 34.682V29.642C17.9931 29.434 18.0991 29.33 18.3111 29.33C18.5191 29.33 18.6231 29.434 18.6231 29.642V30.218C19.0031 29.626 19.6911 29.33 20.6871 29.33H21.0231C21.7711 29.33 22.3171 29.504 22.6611 29.852C23.0091 30.196 23.1831 30.742 23.1831 31.49V34.682C23.1831 34.894 23.0791 35 22.8711 35C22.6591 35 22.5531 34.894 22.5531 34.682V31.49C22.5531 30.918 22.4391 30.52 22.2111 30.296C21.9871 30.072 21.5911 29.96 21.0231 29.96H20.6871C20.0671 29.96 19.5791 30.058 19.2231 30.254C18.8671 30.45 18.6671 30.756 18.6231 31.172V34.682C18.6231 34.894 18.5191 35 18.3111 35ZM25.6353 35C25.4233 35 25.3173 34.894 25.3173 34.682V29.642C25.3173 29.434 25.4233 29.33 25.6353 29.33C25.8433 29.33 25.9473 29.434 25.9473 29.642V30.218C26.3273 29.626 27.0153 29.33 28.0113 29.33H28.3473C29.0953 29.33 29.6413 29.504 29.9853 29.852C30.3333 30.196 30.5073 30.742 30.5073 31.49V34.682C30.5073 34.894 30.4033 35 30.1953 35C29.9833 35 29.8773 34.894 29.8773 34.682V31.49C29.8773 30.918 29.7633 30.52 29.5353 30.296C29.3113 30.072 28.9153 29.96 28.3473 29.96H28.0113C27.3913 29.96 26.9033 30.058 26.5473 30.254C26.1913 30.45 25.9913 30.756 25.9473 31.172V34.682C25.9473 34.894 25.8433 35 25.6353 35ZM34.6455 35C33.8975 35 33.3495 34.828 33.0015 34.484C32.6535 34.136 32.4795 33.59 32.4795 32.846V31.49C32.4795 30.734 32.6535 30.184 33.0015 29.84C33.3495 29.492 33.8975 29.322 34.6455 29.33H35.6295C36.3775 29.33 36.9235 29.504 37.2675 29.852C37.6155 30.196 37.7895 30.742 37.7895 31.49V32.834C37.7895 33.582 37.6155 34.13 37.2675 34.478C36.9235 34.826 36.3775 35 35.6295 35H34.6455ZM33.1095 32.846C33.1095 33.41 33.2215 33.806 33.4455 34.034C33.6735 34.258 34.0735 34.37 34.6455 34.37H35.6295C36.2015 34.37 36.5995 34.258 36.8235 34.034C37.0475 33.806 37.1595 33.406 37.1595 32.834V31.49C37.1595 30.918 37.0475 30.52 36.8235 30.296C36.5995 30.072 36.2015 29.96 35.6295 29.96H34.6455C34.2615 29.956 33.9575 30.002 33.7335 30.098C33.5095 30.194 33.3495 30.354 33.2535 30.578C33.1575 30.802 33.1095 31.106 33.1095 31.49V32.846ZM41.8156 34.76C41.7716 34.856 41.7176 34.92 41.6536 34.952C41.5896 34.984 41.5156 35 41.4316 35C41.2556 35 41.1316 34.918 41.0596 34.754L38.8336 29.768C38.7496 29.572 38.8076 29.436 39.0076 29.36C39.1956 29.28 39.3316 29.336 39.4156 29.528L41.6356 34.496H41.2516L43.6156 29.522C43.6596 29.43 43.7176 29.37 43.7896 29.342C43.8616 29.314 43.9436 29.32 44.0356 29.36C44.2316 29.448 44.2856 29.588 44.1976 29.78L41.8156 34.76ZM47.2182 35C46.5942 35 46.1362 34.856 45.8442 34.568C45.5562 34.276 45.4122 33.818 45.4122 33.194C45.4122 32.57 45.5582 32.112 45.8502 31.82C46.1422 31.528 46.5982 31.382 47.2182 31.382H49.9482C49.9402 30.854 49.8202 30.486 49.5882 30.278C49.3602 30.066 48.9702 29.96 48.4182 29.96H47.7222C47.2142 29.96 46.8422 30.014 46.6062 30.122C46.3702 30.23 46.2242 30.414 46.1682 30.674C46.1402 30.774 46.1022 30.848 46.0542 30.896C46.0102 30.94 45.9382 30.962 45.8382 30.962C45.7342 30.962 45.6522 30.934 45.5922 30.878C45.5362 30.818 45.5162 30.738 45.5322 30.638C45.5842 30.182 45.7902 29.85 46.1502 29.642C46.5142 29.434 47.0382 29.33 47.7222 29.33H48.4182C49.1662 29.33 49.7122 29.504 50.0562 29.852C50.4042 30.196 50.5782 30.742 50.5782 31.49V34.682C50.5782 34.894 50.4742 35 50.2662 35C50.0542 35 49.9482 34.894 49.9482 34.682V34.088C49.5642 34.696 48.8782 35 47.8902 35H47.2182ZM47.2182 34.37H47.8902C48.2782 34.37 48.6182 34.328 48.9102 34.244C49.2062 34.156 49.4442 34.016 49.6242 33.824C49.8042 33.632 49.9122 33.376 49.9482 33.056V32.012H47.2182C46.7742 32.012 46.4662 32.098 46.2942 32.27C46.1262 32.438 46.0422 32.746 46.0422 33.194C46.0422 33.638 46.1262 33.946 46.2942 34.118C46.4662 34.286 46.7742 34.37 47.2182 34.37ZM55.0318 35C54.2958 35 53.7578 34.83 53.4178 34.49C53.0778 34.15 52.9078 33.614 52.9078 32.882V29.96H52.1938C51.9818 29.96 51.8758 29.854 51.8758 29.642C51.8758 29.434 51.9818 29.33 52.1938 29.33H52.9078V28.04C52.9078 27.828 53.0118 27.722 53.2198 27.722C53.4318 27.722 53.5378 27.828 53.5378 28.04V29.33H55.0438C55.2518 29.33 55.3558 29.434 55.3558 29.642C55.3558 29.854 55.2518 29.96 55.0438 29.96H53.5378V32.882C53.5378 33.442 53.6458 33.83 53.8618 34.046C54.0818 34.262 54.4718 34.37 55.0318 34.37C55.1478 34.37 55.2298 34.396 55.2778 34.448C55.3298 34.5 55.3558 34.578 55.3558 34.682C55.3558 34.894 55.2478 35 55.0318 35ZM57.1965 28.238C56.9205 28.238 56.7825 28.096 56.7825 27.812V27.542C56.7825 27.266 56.9205 27.128 57.1965 27.128H57.4665C57.7345 27.128 57.8685 27.266 57.8685 27.542V27.812C57.8685 28.096 57.7345 28.238 57.4665 28.238H57.1965ZM57.3345 35C57.1225 35 57.0165 34.894 57.0165 34.682V29.642C57.0165 29.434 57.1225 29.33 57.3345 29.33C57.5425 29.33 57.6465 29.434 57.6465 29.642V34.682C57.6465 34.894 57.5425 35 57.3345 35ZM61.8916 35C61.1436 35 60.5956 34.828 60.2476 34.484C59.8996 34.136 59.7256 33.59 59.7256 32.846V31.49C59.7256 30.734 59.8996 30.184 60.2476 29.84C60.5956 29.492 61.1436 29.322 61.8916 29.33H62.8756C63.6236 29.33 64.1696 29.504 64.5136 29.852C64.8616 30.196 65.0356 30.742 65.0356 31.49V32.834C65.0356 33.582 64.8616 34.13 64.5136 34.478C64.1696 34.826 63.6236 35 62.8756 35H61.8916ZM60.3556 32.846C60.3556 33.41 60.4676 33.806 60.6916 34.034C60.9196 34.258 61.3196 34.37 61.8916 34.37H62.8756C63.4476 34.37 63.8456 34.258 64.0696 34.034C64.2936 33.806 64.4056 33.406 64.4056 32.834V31.49C64.4056 30.918 64.2936 30.52 64.0696 30.296C63.8456 30.072 63.4476 29.96 62.8756 29.96H61.8916C61.5076 29.956 61.2036 30.002 60.9796 30.098C60.7556 30.194 60.5956 30.354 60.4996 30.578C60.4036 30.802 60.3556 31.106 60.3556 31.49V32.846ZM67.4361 35C67.2241 35 67.1181 34.894 67.1181 34.682V29.642C67.1181 29.434 67.2241 29.33 67.4361 29.33C67.6441 29.33 67.7481 29.434 67.7481 29.642V30.218C68.1281 29.626 68.8161 29.33 69.8121 29.33H70.1481C70.8961 29.33 71.4421 29.504 71.7861 29.852C72.1341 30.196 72.3081 30.742 72.3081 31.49V34.682C72.3081 34.894 72.2041 35 71.9961 35C71.7841 35 71.6781 34.894 71.6781 34.682V31.49C71.6781 30.918 71.5641 30.52 71.3361 30.296C71.1121 30.072 70.7161 29.96 70.1481 29.96H69.8121C69.1921 29.96 68.7041 30.058 68.3481 30.254C67.9921 30.45 67.7921 30.756 67.7481 31.172V34.682C67.7481 34.894 67.6441 35 67.4361 35ZM79.11 35C78.958 35 78.856 34.918 78.804 34.754L76.506 27.686C76.474 27.594 76.486 27.502 76.542 27.41C76.598 27.314 76.686 27.266 76.806 27.266C76.874 27.266 76.934 27.286 76.986 27.326C77.042 27.362 77.08 27.418 77.1 27.494L79.236 34.058H79.062L81.084 27.512C81.112 27.424 81.16 27.36 81.228 27.32C81.3 27.28 81.374 27.26 81.45 27.26C81.53 27.26 81.606 27.28 81.678 27.32C81.75 27.36 81.796 27.424 81.816 27.512L83.838 34.058H83.664L85.8 27.494C85.828 27.418 85.866 27.362 85.914 27.326C85.966 27.286 86.026 27.266 86.094 27.266C86.23 27.266 86.322 27.312 86.37 27.404C86.422 27.496 86.432 27.59 86.4 27.686L84.096 34.754C84.044 34.918 83.934 35 83.766 35H83.742C83.57 35 83.46 34.918 83.412 34.754L81.354 28.142H81.528L79.47 34.754C79.442 34.854 79.398 34.92 79.338 34.952C79.278 34.984 79.202 35 79.11 35ZM87.8879 28.238C87.6119 28.238 87.4739 28.096 87.4739 27.812V27.542C87.4739 27.266 87.6119 27.128 87.8879 27.128H88.1579C88.4259 27.128 88.5599 27.266 88.5599 27.542V27.812C88.5599 28.096 88.4259 28.238 88.1579 28.238H87.8879ZM88.0259 35C87.8139 35 87.7079 34.894 87.7079 34.682V29.642C87.7079 29.434 87.8139 29.33 88.0259 29.33C88.2339 29.33 88.3379 29.434 88.3379 29.642V34.682C88.3379 34.894 88.2339 35 88.0259 35ZM92.895 35C92.159 35 91.621 34.83 91.281 34.49C90.941 34.15 90.771 33.614 90.771 32.882V29.96H90.057C89.845 29.96 89.739 29.854 89.739 29.642C89.739 29.434 89.845 29.33 90.057 29.33H90.771V28.04C90.771 27.828 90.875 27.722 91.083 27.722C91.295 27.722 91.401 27.828 91.401 28.04V29.33H92.907C93.115 29.33 93.219 29.434 93.219 29.642C93.219 29.854 93.115 29.96 92.907 29.96H91.401V32.882C91.401 33.442 91.509 33.83 91.725 34.046C91.945 34.262 92.335 34.37 92.895 34.37C93.011 34.37 93.093 34.396 93.141 34.448C93.193 34.5 93.219 34.578 93.219 34.682C93.219 34.894 93.111 35 92.895 35ZM95.1978 35C94.9858 35 94.8798 34.894 94.8798 34.682V26.99C94.8798 26.782 94.9858 26.678 95.1978 26.678C95.4058 26.678 95.5098 26.782 95.5098 26.99V30.218C95.8898 29.626 96.5778 29.33 97.5738 29.33H97.9098C98.6578 29.33 99.2038 29.504 99.5478 29.852C99.8958 30.196 100.07 30.742 100.07 31.49V34.682C100.07 34.894 99.9658 35 99.7578 35C99.5458 35 99.4398 34.894 99.4398 34.682V31.49C99.4398 30.918 99.3258 30.52 99.0978 30.296C98.8738 30.072 98.4778 29.96 97.9098 29.96H97.5738C96.9538 29.96 96.4658 30.058 96.1098 30.254C95.7538 30.45 95.5538 30.756 95.5098 31.172V34.682C95.5098 34.894 95.4058 35 95.1978 35ZM102.384 28.238C102.108 28.238 101.97 28.096 101.97 27.812V27.542C101.97 27.266 102.108 27.128 102.384 27.128H102.654C102.922 27.128 103.056 27.266 103.056 27.542V27.812C103.056 28.096 102.922 28.238 102.654 28.238H102.384ZM102.522 35C102.31 35 102.204 34.894 102.204 34.682V29.642C102.204 29.434 102.31 29.33 102.522 29.33C102.73 29.33 102.834 29.434 102.834 29.642V34.682C102.834 34.894 102.73 35 102.522 35ZM105.393 35C105.181 35 105.075 34.894 105.075 34.682V29.642C105.075 29.434 105.181 29.33 105.393 29.33C105.601 29.33 105.705 29.434 105.705 29.642V30.218C106.085 29.626 106.773 29.33 107.769 29.33H108.105C108.853 29.33 109.399 29.504 109.743 29.852C110.091 30.196 110.265 30.742 110.265 31.49V34.682C110.265 34.894 110.161 35 109.953 35C109.741 35 109.635 34.894 109.635 34.682V31.49C109.635 30.918 109.521 30.52 109.293 30.296C109.069 30.072 108.673 29.96 108.105 29.96H107.769C107.149 29.96 106.661 30.058 106.305 30.254C105.949 30.45 105.749 30.756 105.705 31.172V34.682C105.705 34.894 105.601 35 105.393 35Z" fill="currentColor"/>
  <path d="M233 85C233 81.134 229.866 78 226 78H33C29.134 78 26 81.134 26 85" stroke="currentColor"/>
  <line x1="132.5" y1="78" x2="132.5" y2="45" stroke="currentColor"/>
  <circle class="icon-fg" cx="132.5" cy="44.5" r="4" fill="currentColor"/>
  <circle cx="132.5" cy="44.5" r="1.5" fill="currentColor"/>
</svg>
